<?xml version="1.0" encoding="UTF-8" standalone="no"?>
<!-- Created with Inkscape (http://www.inkscape.org/) -->

<svg
   width="30.279577mm"
   height="42.217812mm"
   viewBox="0 0 30.279577 42.217812"
   version="1.1"
   id="svg210"
   xml:space="preserve"
   inkscape:version="1.2.2 (b0a8486541, 2022-12-01)"
   sodipodi:docname="LoginPages.svg"
   xmlns:inkscape="http://www.inkscape.org/namespaces/inkscape"
   xmlns:sodipodi="http://sodipodi.sourceforge.net/DTD/sodipodi-0.dtd"
   xmlns="http://www.w3.org/2000/svg"
   xmlns:svg="http://www.w3.org/2000/svg"><sodipodi:namedview
     id="namedview212"
     pagecolor="#ffffff"
     bordercolor="#000000"
     borderopacity="0.25"
     inkscape:showpageshadow="2"
     inkscape:pageopacity="0.0"
     inkscape:pagecheckerboard="0"
     inkscape:deskcolor="#d1d1d1"
     inkscape:document-units="mm"
     showgrid="false"
     showguides="true"
     inkscape:zoom="0.35355339"
     inkscape:cx="3575.1319"
     inkscape:cy="-123.03658"
     inkscape:window-width="1920"
     inkscape:window-height="1020"
     inkscape:window-x="0"
     inkscape:window-y="32"
     inkscape:window-maximized="1"
     inkscape:current-layer="layer2"><sodipodi:guide
       position="78.251748,-232.06206"
       orientation="1,0"
       id="guide22974"
       inkscape:locked="false" /></sodipodi:namedview><defs
     id="defs207" /><g
     inkscape:label="Calque 1"
     inkscape:groupmode="layer"
     id="layer1"
     transform="translate(-26.149241,127.06905)"><rect
       style="fill:none;fill-opacity:1;stroke:#d26a00;stroke-width:3;stroke-dasharray:none;stroke-opacity:1"
       id="rect39485"
       width="27.279577"
       height="23.245003"
       x="27.649242"
       y="-109.59624"
       ry="1.5094129" /><path
       style="fill:none;fill-opacity:1;stroke:#d26a00;stroke-width:3;stroke-dasharray:none;stroke-opacity:1"
       d="m 48.650791,-110.38568 v -7.59224 c 0,-2.78326 -1.301828,-5.27546 -3.649494,-6.61037 -2.347102,-1.3348 -5.23009,-1.30667 -7.550691,0.0737 -2.32073,1.38016 -3.760683,3.90002 -3.708273,6.60978 v 7.51919"
       id="path39487"
       sodipodi:nodetypes="ccsscc" /><path
       id="path39489"
       style="fill:#d26a00;fill-opacity:1;stroke:#d26a00;stroke-width:1.90514;stroke-dasharray:none;stroke-opacity:1"
       d="m 40.073674,-97.310461 v 1.49806 c -0.0077,0.420151 0.226742,0.791992 0.575791,1.023785 0.363737,0.241226 0.807002,0.221786 1.170765,0.01464 0.360784,-0.207047 0.561078,-0.597156 0.561078,-1.028785 v -1.42419 c 0.591994,-0.37391 0.949851,-1.02407 0.949851,-1.72284 2.83e-4,-1.128199 -0.914518,-2.042949 -2.042553,-2.043179 -1.128062,-2.4e-4 -2.042707,0.91436 -2.041835,1.801899 10e-4,0.88741 0.30632,1.49539 0.827622,1.88025 z"
       sodipodi:nodetypes="ccscsccccc" /><circle
       style="fill:#d26a00;fill-opacity:1;stroke:#d26a00;stroke-width:2.31799;stroke-dasharray:none;stroke-opacity:1"
       id="circle39491"
       cx="41.288582"
       cy="-100.11781"
       r="2.6641035" /></g></svg>
