<?xml version="1.0" encoding="UTF-8" standalone="no"?>
<!-- Created with Inkscape (http://www.inkscape.org/) -->

<svg
   width="135.39819mm"
   height="80.324638mm"
   viewBox="0 0 135.39819 80.324638"
   version="1.1"
   id="svg5"
   xml:space="preserve"
   xmlns:inkscape="http://www.inkscape.org/namespaces/inkscape"
   xmlns:sodipodi="http://sodipodi.sourceforge.net/DTD/sodipodi-0.dtd"
   xmlns="http://www.w3.org/2000/svg"
   xmlns:svg="http://www.w3.org/2000/svg"><sodipodi:namedview
     id="namedview7"
     pagecolor="#ffffff"
     bordercolor="#000000"
     borderopacity="0.25"
     inkscape:showpageshadow="2"
     inkscape:pageopacity="0.0"
     inkscape:pagecheckerboard="0"
     inkscape:deskcolor="#d1d1d1"
     inkscape:document-units="mm"
     showgrid="false" /><defs
     id="defs2" /><g
     inkscape:label="Calque 1"
     inkscape:groupmode="layer"
     id="layer1"
     transform="translate(-44.092473,-115.2659)"><path
       style="fill:#000000;stroke-width:0.264583"
       d="M 104.11865,195.38545 C 90.991708,193.9443 78.470858,189.38035 68.009618,182.22339 59.67722,176.52286 51.237593,167.76261 45.966027,159.34236 c -1.857811,-2.96748 -2.109745,-3.66166 -1.711652,-4.71633 1.125671,-2.98224 7.041293,-10.88104 11.828771,-15.79429 13.273231,-13.62192 29.920622,-21.56655 48.926024,-23.34896 4.71639,-0.44232 13.52035,-0.18149 18.26711,0.54118 17.04741,2.59541 32.10713,10.36102 44.22213,22.80335 4.79208,4.92157 10.70548,12.81854 11.83037,15.79872 0.39809,1.05467 0.14616,1.74885 -1.71165,4.71633 -3.81998,6.10163 -10.21774,13.4357 -15.8193,18.13441 -11.11532,9.32377 -24.11173,15.18655 -38.62918,17.42591 -4.08563,0.63022 -15.15232,0.91067 -19.05,0.48277 z m 13.75834,-5.54505 c 17.53386,-1.56287 33.40485,-9.11403 45.64784,-21.71852 3.36462,-3.46398 6.06289,-6.79226 8.47082,-10.44867 l 1.4611,-2.21866 -0.96878,-1.52213 c -3.44301,-5.40961 -9.66853,-12.38991 -14.86794,-16.67049 -10.59521,-8.72287 -23.50598,-14.24669 -37.36179,-15.98509 -3.58528,-0.44982 -13.35757,-0.44902 -16.93334,10e-4 -13.698832,1.72551 -26.316592,7.08208 -37.041658,15.72516 -5.190685,4.18311 -11.677647,11.41356 -15.187563,16.92831 l -0.96828,1.52136 0.96828,1.52135 c 3.509916,5.51475 9.996878,12.7452 15.187563,16.92826 14.666526,11.81942 33.282176,17.56997 51.593748,15.93779 z m -9.525,-9.2759 c -5.21932,-0.67189 -10.546452,-3.34042 -14.438972,-7.23295 -9.91822,-9.91821 -9.91822,-25.8389 0,-35.75711 9.917012,-9.91701 25.840092,-9.91701 35.757102,0 9.91822,9.91821 9.91822,25.8389 0,35.75711 -5.63781,5.63782 -13.35908,8.25754 -21.31813,7.23295 z m 8.45131,-6.09807 c 8.62513,-2.17678 14.60063,-9.95828 14.60063,-19.01343 0,-14.70721 -15.22179,-24.10208 -28.48206,-17.57909 -9.522062,4.68409 -13.493272,16.46442 -8.838262,26.2181 2.19399,4.5971 6.460682,8.33714 11.400432,9.99324 3.77102,1.26427 7.34349,1.38458 11.31926,0.38118 z"
       id="path302" /></g></svg>
