<?xml version="1.0" encoding="UTF-8" standalone="no"?>
<!-- Created with Inkscape (http://www.inkscape.org/) -->

<svg
   width="75.152489mm"
   height="22.947586mm"
   viewBox="0 0 75.152489 22.947586"
   version="1.1"
   id="svg5"
   xml:space="preserve"
   inkscape:version="1.2.2 (b0a8486541, 2022-12-01)"
   sodipodi:docname="HopSeparators.svg"
   xmlns:inkscape="http://www.inkscape.org/namespaces/inkscape"
   xmlns:sodipodi="http://sodipodi.sourceforge.net/DTD/sodipodi-0.dtd"
   xmlns="http://www.w3.org/2000/svg"
   xmlns:svg="http://www.w3.org/2000/svg"><sodipodi:namedview
     id="namedview7"
     pagecolor="#ffffff"
     bordercolor="#000000"
     borderopacity="0.25"
     inkscape:showpageshadow="2"
     inkscape:pageopacity="0.0"
     inkscape:pagecheckerboard="0"
     inkscape:deskcolor="#d1d1d1"
     inkscape:document-units="mm"
     showgrid="false"
     inkscape:zoom="1.092539"
     inkscape:cx="370.2385"
     inkscape:cy="603.63978"
     inkscape:window-width="1665"
     inkscape:window-height="758"
     inkscape:window-x="50"
     inkscape:window-y="118"
     inkscape:window-maximized="0"
     inkscape:current-layer="layer1" /><defs
     id="defs2" /><g
     inkscape:label="Calque 1"
     inkscape:groupmode="layer"
     id="layer1"
     transform="translate(-24.672543,-168.56692)"><path
       style="fill:#000000;stroke-width:0.257659;stroke-dasharray:none"
       d="m 85.225014,191.4303 c -0.17546,-0.0955 -0.30289,-0.28893 -0.37623,-0.5711 -0.0759,-0.29211 -0.0379,-0.29057 -0.75891,-0.0307 -1.71619,0.61844 -4.89865,0.85646 -5.38186,0.40251 -0.52092,-0.48938 -0.20084,-4.00425 0.52878,-5.80654 0.0802,-0.19803 0.0915,-0.2706 0.0447,-0.28629 -0.0345,-0.0116 -0.16301,-0.0468 -0.28564,-0.0782 -0.55916,-0.14345 -0.64433,-0.43853 -0.45601,-1.57993 0.31386,-1.9023 0.96772,-3.57132 1.89333,-4.83277 l 0.26647,-0.36316 -0.12778,-0.0837 c -0.32296,-0.21161 -0.3566,-0.60903 -0.0954,-1.12758 0.6974,-1.38488 1.76145,-2.80102 2.74011,-3.64683 0.27882,-0.24097 0.42913,-0.40434 0.40319,-0.43821 -0.0227,-0.0297 -0.13445,-0.17371 -0.24825,-0.32001 -0.59742,-0.768 -0.28517,-1.17306 1.4329,-1.85883 3.63092,-1.44928 6.97761,-0.75726 10.73032,2.21877 0.22158,0.17571 0.11817,0.25144 1.14467,-0.83833 1.18909,-1.26237 1.53476,-1.84611 1.69789,-2.86731 0.15687,-0.98193 1.3064,-1.01759 1.3064,-0.0405 0,1.13368 -0.65627,2.32375 -2.16252,3.92146 l -0.86095,0.91324 0.22308,0.26251 c 2.99386,3.52312 3.723316,7.39002 2.09295,11.0949 -0.64059,1.45571 -0.9926,1.65819 -1.78691,1.02789 l -0.29288,-0.2324 -0.27189,0.31296 c -1.76088,2.02688 -4.4042,3.52464 -4.89594,2.77415 l -0.0854,-0.13029 -0.18575,0.1464 c -1.50791,1.18851 -5.44281,2.48785 -6.23247,2.05802 z m -3.69604,-1.35194 c 0.899,-0.0922 1.98286,-0.37037 2.70468,-0.69423 l 0.31521,-0.14142 -0.0368,-0.29501 c -0.0202,-0.16226 -0.0386,-0.67013 -0.041,-1.12861 l -0.005,-0.83361 -0.51343,-0.0313 c -0.78493,-0.0478 -0.9366,-0.19867 -0.97932,-0.97403 l -0.0277,-0.50258 -1.03516,-0.0267 c -0.56933,-0.0147 -1.07497,-0.043 -1.12364,-0.0628 -0.38507,-0.15699 -1.17365,3.4387 -1.00445,4.58003 0.0326,0.21968 0.43212,0.2449 1.7458,0.11022 z m 5.74554,-0.20096 c 1.45014,-0.36612 2.57369,-0.89904 3.5596,-1.68837 l 0.1148,-0.0919 -0.29791,-0.62617 c -0.16386,-0.3444 -0.38421,-0.87675 -0.48968,-1.18301 l -0.19178,-0.55682 -0.55419,0.26561 c -0.95314,0.45679 -1.95261,0.7368 -3.13459,0.87816 l -0.52136,0.0624 0.0276,1.00839 c 0.0234,0.85638 0.0974,1.57724 0.21323,2.07841 0.0339,0.14669 0.1783,0.13007 1.27424,-0.14663 z m 6.23203,-2.32129 c 0.80971,-0.53987 1.45264,-1.09071 2.01765,-1.72868 l 0.38547,-0.43525 -0.33525,-0.35347 c -0.76214,-0.80356 -1.61016,-1.93276 -1.93939,-2.58246 l -0.12607,-0.24879 -0.49085,0.24213 c -0.54856,0.27061 -1.04536,0.45512 -1.67453,0.62191 l -0.42338,0.11224 0.0127,0.42434 c 0.0352,1.16899 0.5262,2.71231 1.29671,4.07543 l 0.2754,0.48722 0.31242,-0.18174 c 0.17183,-0.1 0.48191,-0.29476 0.68907,-0.43288 z m -7.70884,-1.94355 c 1.14825,-0.10793 2.31349,-0.41139 3.16389,-0.82396 0.71165,-0.34525 0.71497,-0.34916 0.67087,-0.78947 -0.0203,-0.20266 -0.0383,-0.41368 -0.04,-0.46892 -0.003,-0.0978 -0.0376,-0.10044 -1.29628,-0.10044 -1.88657,0 -1.7954,0.091 -1.7954,-1.79229 v -1.2901 l -0.37665,-0.0307 c -0.20716,-0.0169 -0.42376,-0.0404 -0.48134,-0.0522 -0.47455,-0.0973 -1.29406,2.64537 -1.36218,4.55889 l -0.03,0.84119 0.49731,-4e-5 c 0.27352,-2e-5 0.7459,-0.0234 1.04973,-0.052 z m 12.2713,-1.42984 c 0.99205,-2.93254 0.3619,-5.73416 -1.94881,-8.66431 l -0.32424,-0.41117 -0.11977,0.14363 c -2.4745,2.96751 -2.01938,6.16675 1.33085,9.35503 l 0.63981,0.60888 0.1092,-0.21489 c 0.06,-0.11819 0.20089,-0.48591 0.31296,-0.81717 z m -15.00352,-0.65437 c 0.15448,-1.15563 0.4347,-2.14759 0.85397,-3.02298 0.13535,-0.28259 0.24609,-0.52371 0.24609,-0.53582 0,-0.0121 -0.11865,-0.0605 -0.26366,-0.10751 -0.40465,-0.13118 -1.29489,-0.49955 -1.69855,-0.70283 l -0.36244,-0.18252 -0.12107,0.14239 c -0.89111,1.04798 -2.26297,4.54692 -1.87643,4.78581 0.0501,0.031 0.76159,0.14444 1.38425,0.22075 0.0829,0.0102 0.5121,0.0159 0.95385,0.0128 l 0.80318,-0.006 z m 6.39831,-1.43053 c 1.11087,-0.12414 2.21662,-0.43106 3.0386,-0.84344 0.53982,-0.27082 0.50897,-0.19558 0.37443,-0.91317 -0.18958,-1.01112 -0.0788,-2.23091 0.29838,-3.2863 l 0.16838,-0.4711 -0.31667,0.11919 c -1.18721,0.44687 -2.58699,0.55683 -3.73809,0.29366 -0.38449,-0.0879 -0.35495,-0.11078 -0.65488,0.5071 -0.53927,1.11091 -0.85253,2.59569 -0.85253,4.04076 v 0.60462 l 0.6152,-4e-4 c 0.33836,-2.5e-4 0.81859,-0.0231 1.06718,-0.0509 z m -2.60568,-3.55552 c 0.14814,-0.57287 0.40924,-1.25807 0.66647,-1.74896 l 0.19299,-0.3683 -0.33218,-0.1857 c -0.78821,-0.44066 -1.52477,-0.98997 -2.34446,-1.74844 l -0.50567,-0.46791 -0.46285,0.40954 c -0.73577,0.65101 -1.54164,1.66455 -2.13112,2.68028 l -0.18114,0.31214 0.45658,0.25738 c 1.44202,0.8129 3.20741,1.36772 4.25154,1.33616 l 0.2688,-0.008 z m 4.3634,-2.72639 c 1.08505,-0.13296 2.52648,-0.78373 3.45774,-1.56107 l 0.14318,-0.11952 -0.39429,-0.31436 c -3.01349,-2.4026 -6.03646,-3.01379 -9.05731,-1.83121 -0.31765,0.12435 -0.59661,0.24396 -0.61991,0.2658 -0.0599,0.0562 1.4629,1.57329 1.97586,1.96855 1.63718,1.26149 3.06471,1.76706 4.49473,1.59181 z"
       id="path354"
       inkscape:export-filename="HopSeparators/DoubleHopHalf.png"
       inkscape:export-xdpi="96"
       inkscape:export-ydpi="96" /><path
       style="fill:none;stroke:#000000;stroke-width:1.70712;stroke-linecap:round;stroke-dasharray:none"
       d="m 31.788484,180.83381 c 0.1373,5.56341 -6.26238,5.1944 -6.26238,0 0,-7.40863 9.20621,-8.60124 23.99013,0 14.78391,8.60123 24.49396,7.48614 24.42321,0 -0.0498,-5.26678 -6.69547,-6.29199 -6.69547,0"
       id="path356"
       sodipodi:nodetypes="cszsc" /></g></svg>
