<?xml version="1.0" encoding="UTF-8" standalone="no"?>
<!-- Created with Inkscape (http://www.inkscape.org/) -->

<svg
   width="31.040785mm"
   height="44.334988mm"
   viewBox="0 0 31.040784 44.334987"
   version="1.1"
   id="svg210"
   xml:space="preserve"
   xmlns="http://www.w3.org/2000/svg"
   xmlns:svg="http://www.w3.org/2000/svg"><defs
     id="defs207" /><g
     id="layer1"
     transform="translate(-469.64844,-41.701866)"><g
       id="g1073"
       transform="matrix(0.27340249,0,0,0.27340249,-50.282878,58.159407)"><path
         id="path918"
         style="fill:none;fill-opacity:1;stroke:#ffffff;stroke-width:5.938;stroke-linecap:round;stroke-linejoin:round;stroke-dasharray:none;stroke-opacity:1"
         d="m 1932.1244,-57.226481 c -7.6925,10.457673 -15.2552,21.510983 0.1318,42.513684 -0.1312,2.524936 -0.2146,5.032116 -0.247,7.5199544 -0.074,-0.3704239 -0.1463,-0.7439989 -0.2269,-1.1027751 -3.7853,-16.8497843 -14.8257,-20.9663853 -27.1068,-22.9045453 2.0187,10.938495 4.4825,22.1549086 27.3301,24.560775 -0.1713,16.795571 1.805,32.76433 4.639,48.148482 3.6842,1.410026 7.1213,3.128371 10.0521,5.480286 0.9612,-0.408326 1.8643,-0.83261 2.7063,-1.273824 -13.7489,-7.577107 -13.4599,-17.42166 -12.8638,-26.992151 0.5506,0.233598 1.0711,0.498591 1.6128,0.741557 l -1.1617,-8.36073 c 2.2429,-0.345495 4.2298,-0.794836 6.0668,-1.3048301 -0.3457,-3.6054275 0.09,-7.2516185 0.5767,-10.8556682 3.4597,1.77165514 6.7304,3.7142584 9.5519,6.0642294 0.7656,-0.5981549 1.4822,-1.2157523 2.1094,-1.8681031 -4.0477,-4.3239389 -5.5057,-8.7579509 -5.7335,-13.206429 -5.9164,2.8763946 -10.7172,7.6173993 -13.2751,16.1065104 l -2.7782,-19.9946454 c 12.5748,-17.561767 7.1157,-30.782748 -1.3839,-43.271777 z m 24.058,25.901778 c -10.1647,2.754134 -18.5975,8.40277 -21.1543,23.8724447 6.2523,-0.782624 10.9227,-2.2092812 14.5051,-4.0695187 0.012,-3.107172 0.5134,-6.21518 1.0588,-9.290389 2.057,1.162987 4.0421,2.385747 5.8958,3.718119 0.65,-0.82534 1.1967,-1.689906 1.6909,-2.57452 -1.9284,-3.851908 -2.2738,-7.759274 -1.9963,-11.656136 z m 5.7971,17.545182 c -0.4139,0.07439 -0.8131,0.173477 -1.2237,0.253215 0.3378,0.329999 0.6821,0.654348 1.0025,0.998905 0.07,-0.418043 0.1533,-0.834431 0.2212,-1.25212 z m -57.2725,1.40715 c 2.0224,10.9581798 4.4876,22.1969076 27.45,24.575244 -3.4182,-18.2525427 -14.7727,-22.574577 -27.45,-24.575244 z m 53.451,18.2128414 c -1.0182,0.2882368 -2.0214,0.5995176 -3.0029,0.9436116 2.1996,2.1828305 4.0097,4.718929 5.2818,7.742163 0.6359,-1.969794 1.0384,-4.010711 1.3519,-6.0709471 -1.3293,-0.8662248 -2.5605,-1.7365329 -3.6308,-2.6148275 z m -53.0443,2.7285156 c 2.4731,10.865406 5.4007,21.992519 28.4417,23.420276 -4.1691,-18.095843 -15.6927,-21.944938 -28.4417,-23.420276 z m 38.6622,5.118551 c -1.6893,1.758236 -3.1622,3.845926 -4.3553,6.360852 3.8893,1.835653 7.4908,3.9727 10.4139,6.819738 0.9237,-0.484009 1.7746,-0.993567 2.5574,-1.527038 -4.9636,-3.711489 -7.4653,-7.636829 -8.616,-11.653552 z m 8.7747,11.763623 c -0.8965,0.46996 -1.7644,0.976714 -2.603,1.522387 3.3183,3.27083 5.7688,7.449897 6.8038,13.110828 2.5173,-2.949252 3.7975,-6.226118 4.4901,-9.635588 -3.4861,-1.612881 -6.3693,-3.28065 -8.6909,-4.997627 z m -47.1501,4.129463 c 3.1784,10.427961 6.8589,21.046057 28.6293,21.283456 -0.4993,-1.95038 -0.7643,-3.950454 -0.9132,-5.968111 -6.0872,-12.46625 -16.4994,-14.830857 -27.7161,-15.315345 z m 56.4498,10.037631 c -1.671,0.763677 -3.2839,1.590574 -4.8121,2.510441 0.2519,2.161428 0.3336,4.501295 0.1793,7.087939 -2.2621,-0.820369 -4.2331,-1.68859 -6.041,-2.583305 -0.7637,0.768505 -1.4697,1.600071 -2.1316,2.479952 3.1516,3.275467 5.4708,7.592079 6.522,13.493233 1.1248,-0.771173 2.1425,-1.562082 3.0298,-2.376082 0.9499,-6.808671 1.9991,-13.685629 3.2536,-20.612178 z m 2.4773,9.866581 -0.9699,4.338236 c 0.6528,-1.41396 1.1119,-2.859788 1.4283,-4.327384 -0.1583,-0.0076 -0.298,-0.0018 -0.4584,-0.01085 z m -51.2335,1.374076 c -1.184,-0.0013 -2.3787,0.03047 -3.5807,0.08423 4.1716,10.33301 8.8334,20.852254 31.8079,18.59318 -6.3411,-15.588582 -16.7824,-18.664571 -28.2272,-18.677413 z m 27.6985,10.718209 c 2.8551,12.740753 5.9212,25.134453 8.398,37.325887 l -4.3171,-31.067354 c 1.4204,-0.50077 2.7272,-1.022468 3.961,-1.558045 -3.3456,-1.399411 -5.9679,-2.982228 -8.0419,-4.700488 z" /><g
         id="g1033"
         transform="rotate(-4.483789,1889.1524,-1312.5429)"
         style="fill:none;fill-opacity:1;stroke:#ffffff;stroke-opacity:1"><path
           style="opacity:1;fill:none;fill-opacity:1;stroke:#ffffff;stroke-width:5.938;stroke-linecap:round;stroke-linejoin:round;stroke-dasharray:none;stroke-opacity:1"
           d="m 1851.9801,69.694389 c 22.9442,2.547414 27.7377,-7.912312 32.0389,-18.192077 -12.8132,-0.734435 -24.8264,1.080053 -32.0389,18.192077 z"
           id="path1011" /><path
           style="opacity:1;fill:none;fill-opacity:1;stroke:#ffffff;stroke-width:5.938;stroke-linecap:round;stroke-linejoin:round;stroke-dasharray:none;stroke-opacity:1"
           d="m 1848.9649,69.822876 c -21.7768,-7.661827 -21.5564,-19.165562 -20.9703,-30.293454 11.8625,4.898723 21.8981,11.746713 20.9703,30.293454 z"
           id="path1012" /><path
           style="opacity:1;fill:none;fill-opacity:1;stroke:#ffffff;stroke-width:5.938;stroke-linecap:round;stroke-linejoin:round;stroke-dasharray:none;stroke-opacity:1"
           d="m 1854.5412,50.583374 c 22.6322,4.550818 28.3252,-5.447954 33.5117,-15.310668 -12.6993,-1.855886 -24.8255,-1.10249 -33.5117,15.310668 z"
           id="path1013" /><path
           style="opacity:1;fill:none;fill-opacity:1;stroke:#ffffff;stroke-width:5.938;stroke-linecap:round;stroke-linejoin:round;stroke-dasharray:none;stroke-opacity:1"
           d="m 1851.5263,50.446791 c -21.0204,-9.543056 -19.7914,-20.983084 -18.2313,-32.016642 11.3868,5.9207 20.7829,13.622852 18.2313,32.016642 z"
           id="path1014" /><path
           style="opacity:1;fill:none;fill-opacity:1;stroke:#ffffff;stroke-width:5.938;stroke-linecap:round;stroke-linejoin:round;stroke-dasharray:none;stroke-opacity:1"
           d="m 1860.7911,32.86474 c 22.246,6.168095 28.6438,-3.394959 34.5269,-12.85876 -12.5329,-2.765173 -24.6817,-2.886579 -34.5269,12.85876 z"
           id="path1015" /><path
           style="opacity:1;fill:none;fill-opacity:1;stroke:#ffffff;stroke-width:5.938;stroke-linecap:round;stroke-linejoin:round;stroke-dasharray:none;stroke-opacity:1"
           d="M 1857.7939,32.511495 C 1837.5149,21.48013 1839.5641,10.15824 1841.9145,-0.73439725 1852.8456,5.9905797 1861.6629,14.34909 1857.7939,32.511495 Z"
           id="path1016" /><path
           style="opacity:1;fill:none;fill-opacity:1;stroke:#ffffff;stroke-width:5.938;stroke-linecap:round;stroke-linejoin:round;stroke-dasharray:none;stroke-opacity:1"
           d="m 1867.8686,14.464643 c 21.9721,7.081785 28.7596,-2.208817 35.0286,-11.4215159 -12.4079,-3.28052955 -24.5413,-3.90369065 -35.0286,11.4215159 z"
           id="path1017" /><path
           style="opacity:1;fill:none;fill-opacity:1;stroke:#ffffff;stroke-width:5.938;stroke-linecap:round;stroke-linejoin:round;stroke-dasharray:none;stroke-opacity:1"
           d="m 1864.8886,13.987882 c -19.806,-11.8596536 -17.2908,-23.0872273 -14.4927,-33.873469 10.6441,7.170786 19.1085,15.8863959 14.4927,33.873469 z"
           id="path1018" /><path
           style="opacity:1;fill:none;fill-opacity:1;stroke:#ffffff;stroke-width:5.938;stroke-linecap:round;stroke-linejoin:round;stroke-dasharray:none;stroke-opacity:1"
           d="m 1875.7971,-2.6121268 c 21.9721,7.0817845 28.7596,-2.2088154 35.0285,-11.4215112 -12.4079,-3.280535 -24.5413,-3.903692 -35.0285,11.4215112 z"
           id="path1019" /><path
           style="opacity:1;fill:none;fill-opacity:1;stroke:#ffffff;stroke-width:5.938;stroke-linecap:round;stroke-linejoin:round;stroke-dasharray:none;stroke-opacity:1"
           d="m 1872.817,-3.0888866 c -19.8059,-11.8596474 -17.2907,-23.0872204 -14.4926,-33.8734774 10.6441,7.170802 19.1087,15.886408 14.4926,33.8734774 z"
           id="path1020" /><path
           style="opacity:1;fill:none;fill-opacity:1;stroke:#ffffff;stroke-width:7.05342;stroke-linecap:round;stroke-linejoin:round;stroke-dasharray:none;stroke-opacity:1"
           d="m 1876.6582,-8.855581 c -5.8385,-26.79289 5.928,-33.745725 17.5426,-40.094587 2.4474,15.047274 1.7847,29.463703 -17.5426,40.094587 z"
           id="path1021" /><path
           style="opacity:1;fill:none;fill-opacity:1;stroke:#ffffff;stroke-width:5.938;stroke-linecap:round;stroke-linejoin:round;stroke-dasharray:none;stroke-opacity:1"
           d="m 1879.0592,-15.301075 c -21.9912,38.57035 -26.6461,78.756809 -35.3733,115.064885"
           id="path1022" /><path
           style="opacity:1;fill:none;fill-opacity:1;stroke:#ffffff;stroke-width:5.938;stroke-linecap:round;stroke-linejoin:round;stroke-dasharray:none;stroke-opacity:1"
           d="m 1851.9801,69.694389 c 22.9442,2.547414 27.7377,-7.912312 32.0389,-18.192077 -12.8132,-0.734435 -24.8264,1.080053 -32.0389,18.192077 z"
           id="path1023" /><path
           style="opacity:1;fill:none;fill-opacity:1;stroke:#ffffff;stroke-width:5.938;stroke-linecap:round;stroke-linejoin:round;stroke-dasharray:none;stroke-opacity:1"
           d="m 1848.9649,69.822876 c -21.7768,-7.661827 -21.5564,-19.165562 -20.9703,-30.293454 11.8625,4.898723 21.8981,11.746713 20.9703,30.293454 z"
           id="path1024" /><path
           style="opacity:1;fill:none;fill-opacity:1;stroke:#ffffff;stroke-width:5.938;stroke-linecap:round;stroke-linejoin:round;stroke-dasharray:none;stroke-opacity:1"
           d="m 1854.5412,50.583374 c 22.6322,4.550818 28.3252,-5.447954 33.5117,-15.310668 -12.6993,-1.855886 -24.8255,-1.10249 -33.5117,15.310668 z"
           id="path1025" /><path
           style="opacity:1;fill:none;fill-opacity:1;stroke:#ffffff;stroke-width:5.938;stroke-linecap:round;stroke-linejoin:round;stroke-dasharray:none;stroke-opacity:1"
           d="m 1851.5263,50.446791 c -21.0204,-9.543056 -19.7914,-20.983084 -18.2313,-32.016642 11.3868,5.9207 20.7829,13.622852 18.2313,32.016642 z"
           id="path1026" /><path
           style="opacity:1;fill:none;fill-opacity:1;stroke:#ffffff;stroke-width:5.938;stroke-linecap:round;stroke-linejoin:round;stroke-dasharray:none;stroke-opacity:1"
           d="m 1860.7911,32.86474 c 22.246,6.168095 28.6438,-3.394959 34.5269,-12.85876 -12.5329,-2.765173 -24.6817,-2.886579 -34.5269,12.85876 z"
           id="path1027" /><path
           style="opacity:1;fill:none;fill-opacity:1;stroke:#ffffff;stroke-width:5.938;stroke-linecap:round;stroke-linejoin:round;stroke-dasharray:none;stroke-opacity:1"
           d="M 1857.7939,32.511495 C 1837.5149,21.48013 1839.5641,10.15824 1841.9145,-0.73439725 1852.8456,5.9905797 1861.6629,14.34909 1857.7939,32.511495 Z"
           id="path1028" /><path
           style="opacity:1;fill:none;fill-opacity:1;stroke:#ffffff;stroke-width:5.938;stroke-linecap:round;stroke-linejoin:round;stroke-dasharray:none;stroke-opacity:1"
           d="m 1867.8686,14.464643 c 21.9721,7.081785 28.7596,-2.208817 35.0286,-11.4215159 -12.4079,-3.28052955 -24.5413,-3.90369065 -35.0286,11.4215159 z"
           id="path1029" /><path
           style="opacity:1;fill:none;fill-opacity:1;stroke:#ffffff;stroke-width:5.938;stroke-linecap:round;stroke-linejoin:round;stroke-dasharray:none;stroke-opacity:1"
           d="m 1864.8886,13.987882 c -19.806,-11.8596536 -17.2908,-23.0872273 -14.4927,-33.873469 10.6441,7.170786 19.1085,15.8863959 14.4927,33.873469 z"
           id="path1030" /><path
           style="opacity:1;fill:none;fill-opacity:1;stroke:#ffffff;stroke-width:5.938;stroke-linecap:round;stroke-linejoin:round;stroke-dasharray:none;stroke-opacity:1"
           d="m 1875.7971,-2.6121268 c 21.9721,7.0817845 28.7596,-2.2088154 35.0285,-11.4215112 -12.4079,-3.280535 -24.5413,-3.903692 -35.0285,11.4215112 z"
           id="path1031" /><path
           style="opacity:1;fill:none;fill-opacity:1;stroke:#ffffff;stroke-width:5.938;stroke-linecap:round;stroke-linejoin:round;stroke-dasharray:none;stroke-opacity:1"
           d="m 1872.817,-3.0888866 c -19.8059,-11.8596474 -17.2907,-23.0872204 -14.4926,-33.8734774 10.6441,7.170802 19.1087,15.886408 14.4926,33.8734774 z"
           id="path1032" /><path
           style="opacity:1;fill:none;fill-opacity:1;stroke:#ffffff;stroke-width:5.938;stroke-linecap:round;stroke-linejoin:round;stroke-dasharray:none;stroke-opacity:1"
           d="m 1879.0592,-15.301075 c -21.9912,38.57035 -26.6461,78.756809 -35.3733,115.064885"
           id="path1033" /></g></g></g></svg>
