<?xml version="1.0" encoding="UTF-8" standalone="no"?>
<!-- Created with Inkscape (http://www.inkscape.org/) -->

<svg
   width="28.512899mm"
   height="35.781277mm"
   viewBox="0 0 28.512899 35.781276"
   version="1.1"
   id="svg210"
   xml:space="preserve"
   inkscape:version="1.3 (0e150ed6c4, 2023-07-21)"
   sodipodi:docname="Icons.svg"
   xmlns:inkscape="http://www.inkscape.org/namespaces/inkscape"
   xmlns:sodipodi="http://sodipodi.sourceforge.net/DTD/sodipodi-0.dtd"
   xmlns="http://www.w3.org/2000/svg"
   xmlns:svg="http://www.w3.org/2000/svg"><sodipodi:namedview
     id="namedview212"
     pagecolor="#dedede"
     bordercolor="#000000"
     borderopacity="0.25"
     inkscape:showpageshadow="2"
     inkscape:pageopacity="0.0"
     inkscape:pagecheckerboard="0"
     inkscape:deskcolor="#d1d1d1"
     inkscape:document-units="mm"
     showgrid="false"
     showguides="true"
     inkscape:zoom="1.0898921"
     inkscape:cx="756.03814"
     inkscape:cy="303.69979"
     inkscape:window-width="1920"
     inkscape:window-height="1020"
     inkscape:window-x="0"
     inkscape:window-y="32"
     inkscape:window-maximized="1"
     inkscape:current-layer="layer1"><sodipodi:guide
       position="-401.30632,285.49824"
       orientation="1,0"
       id="guide22974"
       inkscape:locked="false" /><sodipodi:guide
       position="152.25974,495.32318"
       orientation="1,0"
       id="guide9"
       inkscape:locked="false" /></sodipodi:namedview><defs
     id="defs207" /><g
     inkscape:label="Calque 1"
     inkscape:groupmode="layer"
     id="layer1"
     transform="translate(-505.7073,-135.70906)"><path
       id="path20"
       style="color:#000000;fill:#5b5a5a;stroke-linecap:round;stroke-linejoin:round;-inkscape-stroke:none"
       d="m 515.46687,135.70907 a 2.146275,2.146275 0 0 0 -2.14664,2.14664 2.146275,2.146275 0 0 0 1.46503,1.86293 v 9.56841 l -8.87905,19.15439 a 2.1464897,2.1464897 0 0 0 1.94717,3.04891 h 24.22075 a 2.1464897,2.1464897 0 0 0 1.94716,-3.04891 l -8.87852,-19.15439 v -9.58804 a 2.146275,2.146275 0 0 0 1.41593,-1.8433 2.146275,2.146275 0 0 0 -2.14664,-2.14664 h -1.41593 a 2.1464897,2.1464897 0 0 0 -2.14664,2.14664 v 11.90625 a 2.1464897,2.1464897 0 0 0 0.19947,0.90227 l 2.21744,4.78317 h -6.60477 l 2.21744,-4.78317 a 2.1464897,2.1464897 0 0 0 0.19895,-0.90227 v -11.90625 a 2.1464897,2.1464897 0 0 0 -2.14612,-2.14664 z" /></g></svg>
