<?xml version="1.0" encoding="UTF-8" standalone="no"?>
<!-- Created with Inkscape (http://www.inkscape.org/) -->

<svg
   width="31.874298mm"
   height="31.87429mm"
   viewBox="0 0 31.874298 31.87429"
   version="1.1"
   id="svg210"
   xml:space="preserve"
   xmlns="http://www.w3.org/2000/svg"
   xmlns:svg="http://www.w3.org/2000/svg"><defs
     id="defs207" /><g
     id="layer1"
     transform="translate(-642.02984,-0.13761806)"><path
       id="path7"
       style="fill:#5b5a5a;fill-opacity:1;stroke-width:0.0255704;stroke-linecap:round;stroke-linejoin:round"
       d="m 656.86421,4.3637867 c -0.11952,0.046296 -0.22466,0.1239838 -0.30402,0.2246275 -0.09,0.1140921 -0.15689,0.3462652 -0.19982,0.4859406 l -0.85686,2.7875296 c -0.0429,0.1396754 -0.19056,0.2891169 -0.32803,0.3386549 -0.27085,0.097604 -0.53648,0.2091206 -0.79583,0.3341056 -0.13163,0.063435 -0.34116,0.063156 -0.47029,-0.00525 l -2.58441,-1.3692232 c -0.12913,-0.068409 -0.3406,-0.185288 -0.48488,-0.2023881 -0.12722,-0.015078 -0.25645,0.00428 -0.37367,0.055969 -0.13294,0.058624 -0.30082,0.2324058 -0.40415,0.3357324 l -0.59733,0.5973383 a 38757.761,38757.761 135.00019 0 1 -0.37418,0.3741761 c -0.0197,0.019684 -0.12571,0.1196962 -0.18443,0.2525977 -0.0518,0.1172132 -0.0712,0.2464632 -0.0562,0.3737225 0.017,0.1442929 0.13385,0.3557985 0.20227,0.4849167 l 1.3692,2.5839149 c 0.0684,0.129118 0.0687,0.338645 0.005,0.470268 -0.12519,0.259683 -0.23687,0.525662 -0.3346,0.796873 -0.0495,0.137466 -0.19898,0.285085 -0.33866,0.328006 l -2.787,0.856394 c -0.13968,0.04292 -0.37185,0.109834 -0.48594,0.199796 -0.10065,0.07936 -0.17834,0.184503 -0.22463,0.304017 -0.0525,0.135484 -0.0483,0.377073 -0.0483,0.523198 l 0,0.844394 c 0,0.557137 -0.004,0.70294 0.0483,0.838423 0.0463,0.119514 0.12398,0.224659 0.22462,0.304017 0.1141,0.08996 0.34627,0.156888 0.48594,0.199822 l 2.78754,0.856861 c 0.13967,0.04293 0.28909,0.190571 0.33861,0.328045 0.0976,0.271013 0.20915,0.536805 0.33417,0.796314 0.0634,0.131638 0.0631,0.341178 -0.005,0.470296 l -1.3692,2.583915 c -0.0684,0.129118 -0.18524,0.340623 -0.20227,0.484916 -0.015,0.127259 0.004,0.256509 0.0562,0.373722 0.0587,0.132902 0.23253,0.300745 0.33583,0.404098 l 0.59692,0.597241 a 372.99313,372.99313 44.974606 0 0 0.37434,0.374011 c 0.0199,0.0198 0.12,0.125928 0.2529,0.18464 0.11721,0.05178 0.24646,0.07122 0.37372,0.05621 0.1443,-0.01702 0.3558,-0.133852 0.48492,-0.202271 l 2.58391,-1.36919 c 0.12912,-0.06842 0.33866,-0.06872 0.4703,-0.0053 0.25951,0.125024 0.5253,0.236565 0.79632,0.334176 0.13747,0.04951 0.28511,0.198936 0.32804,0.338612 l 0.85686,2.787529 c 0.0429,0.139676 0.10986,0.371848 0.19982,0.48594 0.0794,0.100644 0.1845,0.178331 0.30402,0.224628 0.13548,0.05248 0.37707,0.04825 0.52319,0.04825 h 0.8444 c 0.55714,0 0.70294,0.0042 0.83842,-0.04825 0.11952,-0.0463 0.22466,-0.123984 0.30402,-0.224627 0.09,-0.114092 0.15687,-0.346271 0.19978,-0.485954 l 0.85281,-2.776135 c 0.0429,-0.139683 0.19074,-0.288451 0.3285,-0.33716 0.27815,-0.09835 0.55091,-0.211341 0.81713,-0.3385 0.13185,-0.06298 0.34157,-0.06233 0.47069,0.0061 l 2.56634,1.359888 c 0.12912,0.06842 0.34062,0.185248 0.48492,0.202271 0.12726,0.01501 0.25651,-0.0044 0.37372,-0.05621 0.1329,-0.05871 0.30072,-0.23255 0.40405,-0.335877 l 0.59682,-0.596823 a 133475.22,133475.22 134.99986 0 0 0.37418,-0.374179 c 0.02,-0.01997 0.12617,-0.120269 0.1848,-0.253209 0.0517,-0.117218 0.0711,-0.246446 0.056,-0.373666 -0.0171,-0.144284 -0.13397,-0.355764 -0.20237,-0.484891 l -1.35944,-2.566313 c -0.0684,-0.129127 -0.0691,-0.338871 -0.006,-0.470736 0.127,-0.266044 0.23985,-0.538613 0.33808,-0.816567 0.0487,-0.137769 0.19743,-0.285617 0.33711,-0.328547 l 2.77615,-0.85326 c 0.13968,-0.04293 0.37185,-0.109851 0.48594,-0.199813 0.10065,-0.07936 0.17834,-0.184503 0.22463,-0.304017 0.0525,-0.135484 0.0482,-0.377073 0.0482,-0.523198 v -0.844394 c 0,-0.557137 0.004,-0.70294 -0.0482,-0.838423 -0.0463,-0.119514 -0.12398,-0.224659 -0.22462,-0.304017 -0.1141,-0.08996 -0.34627,-0.156876 -0.48595,-0.199797 l -2.78701,-0.856394 c -0.13968,-0.04292 -0.28916,-0.190528 -0.33874,-0.327978 -0.0977,-0.270876 -0.20935,-0.536528 -0.33445,-0.795894 -0.0635,-0.131609 -0.0632,-0.341131 0.005,-0.470259 l 1.36926,-2.5849136 c 0.0684,-0.1291278 0.18527,-0.3406085 0.20237,-0.4848919 0.0151,-0.1272197 -0.004,-0.2564478 -0.056,-0.373666 -0.0586,-0.1329406 -0.23243,-0.3007981 -0.33579,-0.4040972 l -0.59723,-0.596921 a 375.04395,375.04395 45.025384 0 1 -0.37401,-0.374343 c -0.0198,-0.01985 -0.11998,-0.1259574 -0.25292,-0.1845815 -0.11722,-0.051691 -0.24645,-0.071047 -0.37366,-0.05597 -0.14429,0.0171 -0.35577,0.1339716 -0.4849,0.2023721 l -2.5849,1.3692554 c -0.12913,0.068401 -0.33865,0.068635 -0.47026,0.00515 -0.25937,-0.1251059 -0.52502,-0.2367397 -0.7959,-0.3344557 -0.13745,-0.049583 -0.28505,-0.1990654 -0.32798,-0.3387449 l -0.85639,-2.7869979 c -0.0429,-0.1396795 -0.10984,-0.3718556 -0.1998,-0.4859475 -0.0794,-0.1006437 -0.1845,-0.1783312 -0.30402,-0.2246278 -0.13548,-0.052483 -0.37707,-0.048249 -0.52319,-0.048249 h -0.8444 c -0.55714,0 -0.70294,-0.00423 -0.83842,0.048249 z m 1.36741,7.5251803 c 2.02,0.130532 3.6355,1.74599 3.7661,3.765966 0.009,0.145877 0.009,0.383152 1e-5,0.528948 -0.13053,2.019996 -1.74599,3.6355 -3.76596,3.766104 -0.14588,0.0094 -0.38315,0.0094 -0.52895,10e-6 -2.02,-0.130532 -3.6355,-1.74599 -3.7661,-3.765966 -0.009,-0.145877 -0.009,-0.383152 -1e-5,-0.528948 0.13053,-2.019996 1.74599,-3.6355 3.76596,-3.766104 0.14588,-0.0094 0.38315,-0.0094 0.52895,-1e-5 z"
       transform="matrix(1.3552787,0,0,1.3552787,-233.76162,-5.7110244)" /></g></svg>
