<?xml version="1.0" encoding="UTF-8" standalone="no"?>
<!-- Created with Inkscape (http://www.inkscape.org/) -->

<svg
   width="25.086361mm"
   height="20.606647mm"
   viewBox="0 0 25.086361 20.606647"
   version="1.1"
   id="svg210"
   xml:space="preserve"
   xmlns="http://www.w3.org/2000/svg"
   xmlns:svg="http://www.w3.org/2000/svg"><defs
     id="defs207" /><g
     id="layer1"
     transform="translate(-420.19647,-5.712287)"><path
       id="rect11"
       style="fill:#5b5a5a;stroke-width:0.0301789;stroke-linecap:round;stroke-linejoin:round"
       d="m 422.54832,21.615244 h 20.38266 c 1.30292,0 2.35185,1.048923 2.35185,2.351845 0,1.302923 -1.04893,2.351846 -2.35185,2.351846 h -20.38266 c -1.30292,0 -2.35185,-1.048923 -2.35185,-2.351846 0,-1.302922 1.04893,-2.351845 2.35185,-2.351845 z m 0,-7.951478 h 20.38266 c 1.30292,0 2.35185,1.048923 2.35185,2.351845 0,1.302923 -1.04893,2.351846 -2.35185,2.351846 h -20.38266 c -1.30292,0 -2.35185,-1.048923 -2.35185,-2.351846 0,-1.302922 1.04893,-2.351845 2.35185,-2.351845 z m 0,-7.9514781 h 20.38266 c 1.30292,0 2.35185,1.0489231 2.35185,2.3518455 0,1.3029224 -1.04893,2.3518456 -2.35185,2.3518456 h -20.38266 c -1.30292,0 -2.35185,-1.0489232 -2.35185,-2.3518456 0,-1.3029224 1.04893,-2.3518455 2.35185,-2.3518455 z" /></g></svg>
