<?xml version="1.0" encoding="UTF-8" standalone="no"?>
<!-- Created with Inkscape (http://www.inkscape.org/) -->

<svg
   width="30.405439mm"
   height="32.639938mm"
   viewBox="0 0 30.405439 32.639938"
   version="1.1"
   id="svg210"
   xml:space="preserve"
   xmlns="http://www.w3.org/2000/svg"
   xmlns:svg="http://www.w3.org/2000/svg"><defs
     id="defs207" /><g
     id="layer1"
     transform="translate(-428.76643,-45.433418)"><path
       style="fill:#ffffff;fill-opacity:1;stroke:none;stroke-width:0.366496;stroke-dasharray:none;stroke-opacity:1"
       d="m 449.53542,77.954934 c 0.2484,-0.138016 0.4302,-0.412668 0.5351,-0.812916 0.1104,-0.417152 0.055,-0.412668 1.0789,-0.04485 2.4416,0.880197 6.9685,1.217992 7.6555,0.572423 0.7411,-0.695946 0.2863,-5.695239 -0.7522,-8.258891 -0.1139,-0.282933 -0.1311,-0.386443 -0.066,-0.408181 0.048,-0.04486 0.2312,-0.06556 0.4086,-0.110414 0.7949,-0.200122 0.9157,-0.623833 0.6483,-2.247593 -0.4465,-2.70581 -1.3767,-5.079687 -2.6931,-6.873896 l -0.3781,-0.516873 0.1828,-0.117312 c 0.4596,-0.300187 0.5073,-0.866743 0.1346,-1.604093 -0.992,-1.969838 -2.5057,-3.984182 -3.8979,-5.187339 -0.3951,-0.341592 -0.61,-0.575184 -0.5731,-0.623145 0.045,-0.04485 0.1897,-0.248427 0.3516,-0.455797 0.8501,-1.092055 0.404,-1.667925 -2.0382,-2.643701 -5.1649,-2.061616 -9.9247,-1.077217 -15.2625,3.15574 -0.314,0.25188 -0.1691,0.356082 -1.6286,-1.192459 -1.691,-1.79559 -2.1827,-2.625757 -2.4153,-4.07838 -0.2243,-1.396723 -1.858,-1.447445 -1.858,-0.05521 0,1.612375 0.934,3.305144 3.0764,5.577925 l 1.2242,1.298733 -0.3175,0.373678 c -4.2588,5.01137 -5.2963,10.512004 -2.977,15.781807 0.9106,2.070589 1.4119,2.358353 2.5416,1.461937 l 0.4168,-0.331238 0.3868,0.445102 c 2.5046,2.882814 6.2642,5.013092 6.9639,3.945537 l 0.1208,-0.186321 0.2588,0.207023 c 2.1451,1.690355 7.742,3.538736 8.8654,2.927671 z m 5.257,-1.9236 c -1.2787,-0.131115 -2.8204,-0.526876 -3.8472,-0.987505 l -0.4482,-0.200125 0.052,-0.421294 c 0.045,-0.231178 0.055,-0.953346 0.055,-1.605474 v -1.185903 l 0.7304,-0.04486 c 1.1166,-0.06901 1.3325,-0.282933 1.3933,-1.385336 l 0.045,-0.71527 1.4723,-0.04485 c 0.8102,-0.04485 1.5289,-0.06556 1.5982,-0.08971 0.5483,-0.224275 1.6697,4.891294 1.4285,6.514711 -0.045,0.313987 -0.6142,0.347454 -2.4829,0.155268 z m -8.1723,-0.286383 c -2.0626,-0.520668 -3.6609,-1.279065 -5.0635,-2.401827 l -0.1656,-0.131116 0.4258,-0.890204 c 0.2346,-0.489959 0.5462,-1.246978 0.6959,-1.683107 l 0.2726,-0.791869 0.7881,0.37782 c 1.3557,0.649711 2.7772,1.048578 4.4586,1.249737 l 0.7419,0.08971 -0.045,1.434679 c -0.045,1.217992 -0.138,2.243454 -0.3037,2.956307 -0.048,0.207026 -0.2518,0.186321 -1.8124,-0.207023 z m -8.8644,-3.302038 c -1.1518,-0.767714 -2.0665,-1.550958 -2.8704,-2.458413 l -0.5479,-0.619347 0.4768,-0.502724 c 1.0841,-1.143121 2.2904,-2.748939 2.7586,-3.673647 l 0.1794,-0.351943 0.6984,0.345042 c 0.7805,0.386444 1.4871,0.646606 2.3818,0.883993 l 0.6024,0.162168 -0.045,0.603132 c -0.048,1.662749 -0.7484,3.858242 -1.8439,5.797371 l -0.3909,0.693185 -0.4448,-0.262229 c -0.2415,-0.138016 -0.6849,-0.421297 -0.9803,-0.615899 z m 10.965,-2.764465 c -1.6334,-0.151818 -3.2906,-0.584844 -4.5007,-1.172102 -1.012,-0.490648 -1.0168,-0.496512 -0.9537,-1.122762 0.045,-0.286384 0.055,-0.588294 0.055,-0.666963 0,-0.138016 0.055,-0.144917 1.8443,-0.144917 2.6837,0 2.5536,0.131116 2.5536,-2.549158 v -1.835272 l 0.5362,-0.04486 c 0.2933,-0.04486 0.6021,-0.05521 0.6842,-0.07246 0.6749,-0.138017 1.8408,3.762666 1.9374,6.484347 l 0.045,1.196945 h -0.707 c -0.3909,0 -1.0614,-0.04485 -1.493,-0.07246 z m -17.4549,-2.033669 c -1.4109,-4.171193 -0.5144,-8.156067 2.7724,-12.324156 l 0.461,-0.584844 0.1691,0.200125 c 3.5197,4.22157 2.8721,8.772308 -1.8933,13.307175 l -0.9102,0.866052 -0.1518,-0.303636 c -0.086,-0.165619 -0.2864,-0.691459 -0.4455,-1.162786 z m 21.3411,-0.930919 c -0.2208,-1.643428 -0.6183,-3.054642 -1.2142,-4.29955 -0.1898,-0.404042 -0.3519,-0.744942 -0.3519,-0.762539 0,-0.04485 0.169,-0.08626 0.3737,-0.151817 0.5758,-0.186321 1.8421,-0.710439 2.4163,-0.999237 l 0.5151,-0.258781 0.1725,0.200122 c 1.267,1.489885 3.2186,6.467096 2.6686,6.807304 -0.069,0.04486 -1.0831,0.207026 -1.9685,0.313989 -0.1173,0.04486 -0.7291,0.04486 -1.357,0.04486 l -1.1425,-0.04486 z m -9.1008,-2.034703 c -1.5803,-0.17942 -3.1533,-0.613138 -4.3223,-1.199362 -0.7681,-0.386791 -0.7239,-0.279483 -0.5324,-1.299077 0.2691,-1.438475 0.1139,-3.173681 -0.4258,-4.674609 l -0.2381,-0.670068 0.4507,0.169069 c 1.6886,0.634876 3.6795,0.791869 5.317,0.41681 0.5466,-0.124215 0.5052,-0.155268 0.9316,0.721135 0.7667,1.580286 1.2125,3.691932 1.2125,5.747683 v 0.859843 l -0.875,-2.74e-4 c -0.4813,-8.2e-4 -1.1645,-0.04486 -1.5182,-0.06901 z m 3.7064,-5.056912 c -0.2139,-0.815333 -0.5824,-1.789726 -0.9481,-2.488089 l -0.2726,-0.523771 0.472,-0.262231 c 1.1214,-0.626595 2.1689,-1.407766 3.3352,-2.486708 l 0.719,-0.665926 0.6584,0.582426 c 1.0468,0.926091 2.1924,2.368013 3.0311,3.812355 l 0.2588,0.44441 -0.6497,0.364708 c -2.0513,1.156577 -4.5618,1.945685 -6.0472,1.901173 l -0.3823,-0.04485 z m -6.2069,-3.878603 c -1.5433,-0.186321 -3.5932,-1.114826 -4.9182,-2.220335 l -0.2036,-0.169069 0.5604,-0.447519 c 4.2864,-3.417624 8.586,-4.287126 12.8831,-2.605055 0.4517,0.17942 0.8488,0.347456 0.8816,0.37782 0.086,0.07936 -2.0806,2.238278 -2.8104,2.800694 -2.3287,1.793865 -4.3589,2.51293 -6.3932,2.263811 z"
       id="path481-11" /></g></svg>
