<?xml version="1.0" encoding="UTF-8" standalone="no"?>
<!-- Created with Inkscape (http://www.inkscape.org/) -->

<svg
   width="20.015316mm"
   height="20.015316mm"
   viewBox="0 0 20.015316 20.015316"
   version="1.1"
   id="svg210"
   xml:space="preserve"
   xmlns="http://www.w3.org/2000/svg"
   xmlns:svg="http://www.w3.org/2000/svg"><defs
     id="defs207" /><g
     id="layer1"
     transform="translate(-480.72842,-5.4720603)"><g
       id="g20"
       transform="translate(-51.317197)"><path
         id="path21"
         style="fill:#5b5a5a;fill-opacity:1;stroke-width:0.0499999;stroke-linecap:round;stroke-linejoin:round"
         d="M 542.05328,5.4720564 A 10.007635,10.007635 0 0 0 532.04562,15.479714 10.007635,10.007635 0 0 0 542.05328,25.487372 10.007635,10.007635 0 0 0 552.06094,15.479714 10.007635,10.007635 0 0 0 542.05328,5.4720564 Z m -6.24923,7.7581826 a 2.2496438,2.2496438 0 0 1 2.24947,2.249475 2.2496438,2.2496438 0 0 1 -2.24947,2.249475 2.2496438,2.2496438 0 0 1 -2.24999,-2.249475 2.2496438,2.2496438 0 0 1 2.24999,-2.249475 z m 6.24923,0 a 2.2496438,2.2496438 0 0 1 2.24947,2.249475 2.2496438,2.2496438 0 0 1 -2.24947,2.249475 2.2496438,2.2496438 0 0 1 -2.24948,-2.249475 2.2496438,2.2496438 0 0 1 2.24948,-2.249475 z m 6.24923,0 a 2.2496438,2.2496438 0 0 1 2.24947,2.249475 2.2496438,2.2496438 0 0 1 -2.24947,2.249475 2.2496438,2.2496438 0 0 1 -2.24948,-2.249475 2.2496438,2.2496438 0 0 1 2.24948,-2.249475 z" /><g
         id="g19"
         style="fill:#ffffff;fill-opacity:1"
         transform="translate(1.060871)" /></g></g></svg>
