<?xml version="1.0" encoding="UTF-8" standalone="no"?>
<!-- Created with Inkscape (http://www.inkscape.org/) -->

<svg
   width="21.781464mm"
   height="21.194635mm"
   viewBox="0 0 21.781463 21.194635"
   version="1.1"
   id="svg210"
   xml:space="preserve"
   xmlns="http://www.w3.org/2000/svg"
   xmlns:svg="http://www.w3.org/2000/svg"><defs
     id="defs207" /><g
     id="layer1"
     transform="translate(-450.69247,-216.98575)"><rect
       style="fill:none;fill-opacity:1;stroke:#5b5a5a;stroke-width:1.53571;stroke-linecap:round;stroke-dasharray:none;stroke-opacity:1"
       id="rect218-72"
       width="20.245754"
       height="19.658918"
       x="451.46033"
       y="217.75363"
       ry="3.3742814" /><path
       style="fill:#5b5a5a;fill-opacity:1;stroke-width:1.20168"
       d="m 461.04622,235.29724 c -0.2784,-0.0218 -0.3869,-0.13582 -0.3869,-0.41004 0,-0.18011 -0.024,-0.19682 -0.184,-0.19682 -0.3055,0 -0.4122,-0.0932 -0.4122,-0.35917 v -0.23604 h -0.4927 c -0.75,0 -0.757,-0.01 -0.757,-0.95223 0,-0.725 0.024,-0.77192 0.1331,-0.85951 0.073,-0.0508 0.2082,-0.0927 0.2978,-0.0927 h 0.167 v -0.49097 c 0,-0.27001 0.027,-0.52903 0.053,-0.57553 0.029,-0.0465 0.1719,-0.10023 0.3113,-0.11911 l 0.2581,-0.0341 v -0.29758 -0.29754 l -0.2373,-0.017 c -0.3144,-0.0242 -0.3868,-0.13485 -0.3868,-0.59248 0,-0.57918 0.029,-0.60959 0.6149,-0.60959 0.3031,0 0.5193,0.0274 0.5631,0.0714 0.044,0.0448 0.073,0.26715 0.073,0.59511 v 0.5237 h 0.6249 0.6248 v -0.23603 c 0,-0.26589 0.1066,-0.35915 0.4128,-0.35915 0.1792,0 0.1816,-0.005 0.1816,-0.29756 v -0.29755 h -0.1986 c -0.2227,0 -0.396,-0.14938 -0.396,-0.34264 0,-0.18448 0.1622,-0.31199 0.3912,-0.31199 h 0.2034 v -0.50583 c 0,-0.43071 0.024,-0.52402 0.1234,-0.62792 0.2227,-0.222 0.5326,-0.0218 0.5326,0.34172 v 0.19682 h 0.5234 c 0.5678,0 0.667,0.0443 0.667,0.29753 0,0.25331 -0.099,0.29756 -0.667,0.29756 h -0.5234 v 0.82179 c 0,0.93473 -0.029,1.00784 -0.3871,1.0349 -0.2324,0.017 -0.2396,0.0242 -0.2721,0.2759 -0.024,0.14187 -0.073,0.28209 -0.1162,0.31152 -0.048,0.0295 -0.3058,0.054 -0.5757,0.0545 l -0.491,8.2e-4 v 1.05633 c 0,1.18149 -0.039,1.34106 -0.3246,1.37386 -0.2886,0.0332 -0.3288,-0.0905 -0.3288,-1.01326 v -0.82182 h -0.2975 -0.2976 v 0.52639 c 0,0.60715 -0.07,0.72335 -0.4362,0.72335 h -0.2179 v 0.29754 0.29758 l 0.5205,8.2e-4 c 0.2866,5.5e-4 0.5588,0.0249 0.6055,0.0545 0.048,0.0295 0.099,0.16971 0.1186,0.31152 0.034,0.24776 0.044,0.25871 0.2566,0.27638 0.2545,0.0218 0.4029,0.18351 0.4029,0.44117 0,0.1484 0.024,0.16535 0.2033,0.16535 0.3281,0 0.4961,0.25955 0.3167,0.4891 -0.08,0.10071 -0.3927,0.14768 -0.7883,0.1179 z m 6.1901,-10e-4 c -0.1307,-0.01 -0.2711,-0.0472 -0.3128,-0.0816 -0.1162,-0.0976 -0.092,-0.39152 0.041,-0.46228 0.063,-0.0339 0.4781,-0.0617 0.9226,-0.0617 h 0.8072 v -0.80734 c 0,-0.444 0.029,-0.8591 0.061,-0.92241 0.073,-0.1375 0.3665,-0.15615 0.4714,-0.0293 0.1089,0.13122 0.097,2.1651 -0.024,2.27511 -0.061,0.0605 -0.2995,0.0859 -0.9119,0.0956 -0.4562,0.005 -0.9362,0.005 -1.0667,-0.005 z m -13.3493,-1.36181 0.024,-1.35951 0.1937,-0.39701 c 0.2154,-0.43923 0.5701,-0.79145 1.0146,-1.01048 0.2612,-0.12879 0.3585,-0.13775 1.6654,-0.15566 l 1.3874,-0.0169 -0.024,1.38766 -0.024,1.38763 -0.2033,0.37646 c -0.2373,0.43618 -0.5539,0.73452 -1.0159,0.95506 -0.319,0.15228 -0.3614,0.15664 -1.6842,0.17504 l -1.3572,0.0169 z m 2.5993,0.66363 c 0.3632,-0.10798 0.7324,-0.41609 0.9178,-0.76623 0.1816,-0.33973 0.1816,-1.03556 0,-1.37357 -0.1791,-0.33915 -0.4171,-0.5598 -0.7853,-0.7298 -0.2654,-0.1225 -0.3816,-0.14259 -0.6861,-0.11814 -1.3512,0.10822 -1.9401,1.65767 -0.9909,2.60685 0.437,0.4371 0.9376,0.56062 1.5431,0.38084 z m -1.232,-0.69973 c -0.1162,-0.12346 -0.1283,-0.20287 -0.1283,-0.76327 0,-0.59524 0.024,-0.63252 0.1526,-0.76957 0.1283,-0.12153 0.2251,-0.14744 0.61,-0.16463 0.9239,-0.0419 1.1001,0.12493 1.0698,1.01235 -0.024,0.45065 -0.036,0.53546 -0.1622,0.66948 -0.1379,0.14647 -0.1743,0.15349 -0.7783,0.15349 -0.5856,0 -0.6435,-0.01 -0.7633,-0.13775 z m 4.2188,1.2757 c -0.092,-0.16971 -0.08,-0.27248 0.046,-0.38484 0.1477,-0.13266 0.3256,-0.12395 0.4585,0.0218 0.087,0.0956 0.097,0.1547 0.051,0.28267 -0.046,0.13049 -0.097,0.16535 -0.275,0.18012 -0.1695,0.017 -0.2324,-0.007 -0.2816,-0.10023 z m 4.3524,0.0404 c -0.1768,-0.17698 -0.024,-0.52373 0.2481,-0.52373 0.1767,0 0.2755,0.10798 0.2755,0.29756 0,0.19682 -0.1017,0.29756 -0.2975,0.29756 -0.085,0 -0.1865,-0.032 -0.2252,-0.0714 z m 1.835,-0.0438 c -0.085,-0.16027 -0.08,-0.91543 0.024,-1.0037 0.039,-0.0392 0.1452,-0.0714 0.2348,-0.0714 0.2324,0 0.3486,0.19634 0.3486,0.59512 0,0.20287 -0.036,0.38166 -0.092,0.46283 -0.1162,0.16971 -0.4133,0.17988 -0.5007,0.017 z m -3.658,-0.57352 c -0.109,-0.11088 -0.1235,-0.33005 -0.024,-0.43018 0.039,-0.0392 0.1404,-0.0714 0.2251,-0.0714 0.1985,0 0.2978,0.10144 0.2978,0.30739 0,0.25843 -0.3155,0.38052 -0.5016,0.1944 z m 1.2279,0.0218 c -0.039,-0.0395 -0.073,-0.17334 -0.073,-0.29759 0,-0.21885 -0.024,-0.22611 -0.2081,-0.22611 -0.1284,0 -0.2538,-0.0453 -0.3271,-0.11912 -0.073,-0.0738 -0.1162,-0.19827 -0.1162,-0.32728 0,-0.20142 -0.024,-0.2082 -0.2252,-0.2082 -0.2651,0 -0.3687,-0.0838 -0.3687,-0.29759 0,-0.2471 0.1017,-0.29753 0.6036,-0.29753 0.4086,0 0.4713,0.017 0.5534,0.13243 0.051,0.0726 0.094,0.20675 0.094,0.29758 0,0.14768 0.024,0.16535 0.1985,0.16535 0.3072,0 0.3959,0.14308 0.3959,0.64017 0,0.30475 -0.027,0.44858 -0.092,0.51602 -0.1089,0.11088 -0.3299,0.1225 -0.4301,0.0218 z m 1.2114,-0.0608 c -0.061,-0.0857 -0.094,-0.26405 -0.094,-0.50586 0,-0.44908 0.1162,-0.61162 0.4462,-0.61162 h 0.2082 v -0.29756 -0.29754 h -0.8214 c -0.6089,0 -0.8515,-0.0218 -0.9355,-0.0828 -0.1017,-0.0738 -0.1113,-0.1639 -0.1113,-0.82656 0,-0.8384 0.031,-0.91858 0.3723,-0.94693 l 0.2179,-0.017 0.024,-0.84208 c 0.024,-0.58839 0.039,-0.86089 0.092,-0.90447 0.041,-0.0341 0.3208,-0.0811 0.6212,-0.10361 l 0.5457,-0.0412 v -0.50152 c 0,-0.55246 0.051,-0.67193 0.299,-0.67193 0.2786,0 0.3021,0.078 0.3021,0.99384 v 0.85101 h 0.6251 0.6249 v -0.53137 c 0,-0.60722 0.06,-0.71839 0.3912,-0.71839 h 0.2033 v -0.29753 -0.29756 h -0.506 c -0.4304,0 -0.5236,-0.0169 -0.6277,-0.12226 -0.1235,-0.12178 -0.1162,-0.30531 0.024,-0.4433 0.029,-0.0339 0.391,-0.0593 0.8312,-0.0593 0.9473,0 0.9444,-0.002 0.9444,0.72553 v 0.49448 h 0.48 c 0.5917,0 0.7101,0.0547 0.7101,0.32729 0,0.23192 -0.1186,0.32731 -0.4125,0.32731 -0.1695,0 -0.184,0.0169 -0.184,0.20408 0,0.23459 -0.1283,0.39103 -0.3198,0.39103 -0.1913,0 -0.2753,-0.1116 -0.2753,-0.36897 v -0.22612 h -0.3307 -0.3304 l 0.024,0.28267 c 0.024,0.28023 0.024,0.28284 0.2424,0.30122 0.2871,0.0242 0.4522,0.23725 0.3525,0.45642 -0.051,0.11281 -0.1187,0.14671 -0.3211,0.16123 l -0.2556,0.0169 -0.024,0.53251 c -0.024,0.29289 -0.048,0.56738 -0.082,0.60999 -0.036,0.0429 -0.1694,0.0775 -0.2949,0.0775 h -0.2299 v 0.29162 0.29163 l 0.5403,0.0218 c 0.6607,0.0257 0.7094,0.0697 0.7094,0.64782 0,0.30802 -0.027,0.41783 -0.109,0.49446 -0.2421,0.21885 -0.5459,0.0559 -0.5459,-0.29258 v -0.20408 h -0.2975 c -0.2923,0 -0.2976,0.005 -0.2976,0.18254 0,0.2769 -0.097,0.41267 -0.2963,0.41267 -0.2034,0 -0.3581,-0.18447 -0.3581,-0.42981 0,-0.15882 -0.024,-0.16535 -0.2977,-0.16535 h -0.2976 v 0.53219 c 0,0.4825 -0.024,0.54087 -0.1331,0.62488 -0.073,0.0508 -0.2058,0.0927 -0.2973,0.0927 -0.1501,0 -0.1671,0.0218 -0.1671,0.199 0,0.35709 -0.3735,0.53253 -0.5619,0.26378 z m 1.7521,-3.28762 v -0.92037 l -0.9074,0.0121 -0.9076,0.0121 -0.024,0.90756 -0.024,0.90754 h 0.9207 0.9204 z m -1.1188,0.25388 c -0.039,-0.0392 -0.073,-0.14114 -0.073,-0.22611 0,-0.085 0.034,-0.1869 0.073,-0.22612 0.039,-0.0395 0.1405,-0.0717 0.2252,-0.0717 0.1888,0 0.2975,0.0995 0.2975,0.27546 0,0.26059 -0.3469,0.42504 -0.5236,0.24824 z m -3.6541,2.49651 c -0.1622,-0.12855 -0.184,-0.32334 -0.051,-0.45816 0.1501,-0.15107 0.3109,-0.15591 0.4399,-0.0121 0.1308,0.14477 0.1259,0.28197 -0.024,0.42677 -0.138,0.1375 -0.2373,0.14937 -0.37,0.0448 z m 6.844,-1.81097 c -0.1719,-0.0455 -0.2581,-0.61845 -0.1937,-1.30099 0.039,-0.39604 0.061,-0.46117 0.1816,-0.51648 0.2154,-0.0978 0.429,0.0695 0.4525,0.35428 0.024,0.21135 0.031,0.22515 0.2372,0.24241 0.1211,0.01 0.2489,0.0545 0.2854,0.0985 0.039,0.0443 0.065,0.27669 0.07,0.51644 0,0.55129 -0.09,0.64953 -0.5938,0.63918 -0.184,-0.005 -0.3813,-0.017 -0.437,-0.0339 z m -6.2846,-0.0903 c -0.1597,-0.1593 -0.024,-0.5237 0.2058,-0.5237 0.1816,0 0.3186,0.12299 0.3186,0.28776 0,0.20602 -0.097,0.30736 -0.2973,0.30736 -0.085,0 -0.1864,-0.032 -0.2251,-0.0714 z m -3.0675,-1.22763 c -0.1283,-0.14284 -0.1259,-0.32482 0.024,-0.44732 0.2179,-0.19634 0.4861,-0.0518 0.4861,0.26073 0,0.27463 -0.3108,0.39154 -0.4963,0.18666 z m -4.9661,-0.61722 c -0.1017,-0.10047 -0.1017,-2.19655 0,-2.29712 0.097,-0.0976 0.3745,-0.0901 0.4595,0.0121 0.097,0.11717 0.097,2.15471 0,2.27181 -0.082,0.10265 -0.362,0.1104 -0.4595,0.0121 z m 2.4544,-0.0738 c -0.095,-0.14139 -0.095,-0.16293 0,-0.30102 0.196,-0.30032 0.6541,-0.083 0.5362,0.2547 -0.082,0.23314 -0.3937,0.2603 -0.5338,0.0462 z m 1.2252,0.0303 c -0.1767,-0.33131 0,-0.48 0.5633,-0.48 0.4758,0 0.6249,0.076 0.6249,0.31966 0,0.22684 -0.1114,0.27545 -0.6348,0.27545 -0.4254,0 -0.5002,-0.0169 -0.5534,-0.11499 z m 11.1385,0.0438 c -0.1767,-0.17673 -0.024,-0.5237 0.2482,-0.5237 0.1767,0 0.2755,0.10797 0.2755,0.29756 0,0.19682 -0.1017,0.29755 -0.2976,0.29755 -0.085,0 -0.1864,-0.0319 -0.2251,-0.0714 z m -12.9128,-1.21147 c -0.097,-0.069 -0.1332,-0.15228 -0.1332,-0.32729 0,-0.23216 0,-0.23459 -0.2251,-0.23459 -0.2654,0 -0.3692,-0.0838 -0.3692,-0.29755 0,-0.21377 0.1041,-0.29754 0.3692,-0.29754 0.2227,0 0.2251,-0.002 0.2251,-0.23459 0,-0.2688 0.155,-0.41996 0.4297,-0.41996 0.1405,0 0.1671,-0.0242 0.1671,-0.16535 0,-0.36365 0.3404,-0.55984 0.5561,-0.321 0.053,0.0598 0.099,0.19368 0.099,0.29754 v 0.18859 h 0.7902 c 0.8612,0 1.0548,0.0591 1.0548,0.32146 0,0.28506 -0.1501,0.33317 -1.0313,0.33317 h -0.8137 v 0.19682 c 0,0.27424 -0.1065,0.38907 -0.3868,0.41003 -0.2325,0.017 -0.2373,0.0242 -0.2559,0.25597 -0.029,0.35169 -0.2203,0.47209 -0.475,0.29417 z m 1.216,-0.017 c -0.1259,-0.13702 -0.1283,-0.33101 0,-0.45228 0.073,-0.076 0.2482,-0.0937 0.9224,-0.0937 h 0.8292 v -0.22612 c 0,-0.28499 0.082,-0.36895 0.3687,-0.36895 0.2154,0 0.2251,-0.007 0.2251,-0.19682 0,-0.3644 0.3106,-0.5637 0.5326,-0.34174 0.099,0.0993 0.1235,0.1973 0.1211,0.52377 0,0.22103 -0.026,0.43976 -0.053,0.48629 -0.029,0.0465 -0.1719,0.10023 -0.3113,0.11911 -0.2518,0.0334 -0.2586,0.0404 -0.2762,0.27248 -0.024,0.13267 -0.061,0.27095 -0.1162,0.31245 -0.073,0.0528 -0.3932,0.0743 -1.1183,0.0743 -0.9136,0 -1.0311,-0.0121 -1.1194,-0.10894 z m 3.7237,0.017 c -0.2821,-0.19755 -0.053,-0.64078 0.2711,-0.52709 0.291,0.10168 0.2276,0.61974 -0.073,0.61974 -0.036,0 -0.1259,-0.0416 -0.1961,-0.0927 z m 0.5553,-0.6942 c -0.048,-0.0726 -0.094,-0.20675 -0.094,-0.29759 0,-0.14767 -0.024,-0.16535 -0.1985,-0.16535 -0.3573,0 -0.5326,-0.37374 -0.2637,-0.56197 0.082,-0.06 0.2642,-0.0927 0.5055,-0.0927 0.5143,0 0.6118,0.10047 0.6118,0.62876 0,0.21499 -0.026,0.44255 -0.06,0.50586 -0.087,0.16269 -0.3811,0.15276 -0.5002,-0.017 z m -6.7946,-0.6141 c -0.1791,-0.27262 0.061,-0.55466 0.376,-0.43885 0.1767,0.0654 0.2275,0.26696 0.1089,0.44422 -0.1283,0.19465 -0.3571,0.19222 -0.4866,-0.005 z m 9.8823,0.005 c -0.1211,-0.18423 -0.063,-0.37818 0.1308,-0.45269 0.3067,-0.11694 0.5635,0.24112 0.3459,0.48193 -0.1453,0.16124 -0.3615,0.14793 -0.4777,-0.0295 z m 4.3524,0.0525 c -0.1404,-0.14162 -0.1162,-0.36522 0.056,-0.47728 0.138,-0.0903 0.1598,-0.0903 0.2973,0 0.2738,0.17914 0.1549,0.57081 -0.1719,0.57081 -0.048,0 -0.1308,-0.0419 -0.1816,-0.0937 z m -14.7199,-0.56531 c -0.1622,-0.0637 -0.2178,-0.18472 -0.1694,-0.38186 0.044,-0.17551 0.2651,-0.24955 0.4498,-0.15058 0.2886,0.15446 0.026,0.6515 -0.2818,0.53249 z m 1.1723,-0.0472 c -0.1162,-0.0939 -0.1235,-0.15639 -0.1162,-1.16518 0,-0.68096 0.029,-1.09414 0.07,-1.14462 0.1041,-0.12395 1.5576,-0.11161 1.6837,0.017 0.1138,0.11282 0.1187,0.26427 0.024,0.40243 -0.061,0.0816 -0.1816,0.10483 -0.6104,0.11548 l -0.5347,0.0121 -0.024,0.82915 c -0.024,0.45603 -0.044,0.86154 -0.078,0.9011 -0.1016,0.12274 -0.2888,0.13775 -0.4168,0.0339 z m 3.7672,0.0472 c -0.1622,-0.0637 -0.2179,-0.18472 -0.1695,-0.38186 0.044,-0.17551 0.2651,-0.24955 0.4498,-0.15058 0.2884,0.15446 0.027,0.6515 -0.2817,0.53249 z m 1.1834,-0.0334 c -0.1695,-0.11838 -0.1719,-0.41084 0,-0.50099 0.1864,-0.0995 0.4026,-0.0218 0.4486,0.16172 0.073,0.29037 -0.2107,0.50508 -0.4474,0.3391 z m 3.1351,0.0564 c -0.138,-0.0361 -0.1767,-0.19005 -0.1743,-0.65366 0,-0.44083 0.065,-0.55561 0.3099,-0.55561 0.1961,0 0.2926,0.138 0.2926,0.41268 0,0.1639 0.024,0.1823 0.1816,0.1823 0.277,0 0.4128,0.0973 0.4128,0.29627 0,0.24762 -0.1888,0.35992 -0.5936,0.35145 -0.1816,-0.005 -0.3745,-0.017 -0.4302,-0.0334 z m 4.8017,-0.14163 c -0.07,-0.22829 -0.039,-0.90553 0.051,-0.99423 0.1065,-0.10652 0.8987,-0.11597 1.0241,-0.0121 0.1041,0.0869 0.1162,0.36341 0.024,0.46216 -0.039,0.0395 -0.1718,0.0714 -0.2975,0.0714 -0.2227,0 -0.2251,0.005 -0.2251,0.22612 0,0.27659 -0.082,0.36895 -0.3353,0.36895 -0.1405,0 -0.201,-0.032 -0.2325,-0.1225 z m -10.4684,-0.56602 c -0.109,-0.1087 -0.1162,-0.22514 -0.029,-0.38652 0.051,-0.1 0.1283,-0.115 0.5634,-0.115 0.435,0 0.5098,0.017 0.5633,0.115 0.1768,0.33135 0,0.48002 -0.5633,0.48002 -0.3189,0 -0.4634,-0.0257 -0.5317,-0.0937 z m 3.6796,-0.0552 c -0.09,-0.13775 -0.09,-0.15978 0,-0.29756 0.1791,-0.27376 0.5708,-0.15688 0.5708,0.17019 0,0.27517 -0.4135,0.36731 -0.5708,0.1271 z m 3.1027,0.0322 c -0.2228,-0.24551 0.041,-0.55767 0.38,-0.45016 0.2881,0.0915 0.1671,0.5668 -0.1452,0.5668 -0.073,0 -0.1792,-0.0525 -0.2348,-0.11645 z m 1.2516,0.0242 c -0.1864,-0.18641 -0.063,-0.5016 0.1937,-0.5016 0.2057,0 0.3074,0.0981 0.3074,0.29756 0,0.085 -0.034,0.1869 -0.073,0.22612 -0.099,0.10023 -0.3191,0.0891 -0.4302,-0.0218 z m -11.7189,-0.61044 c -0.1331,-0.14671 -0.1258,-0.32567 0.024,-0.45817 0.1888,-0.17116 0.4386,-0.0596 0.4641,0.20845 0.029,0.32232 -0.2774,0.48068 -0.4864,0.24979 z m 5.5552,-0.01 c -0.07,-0.0738 -0.1163,-0.19828 -0.1163,-0.32729 0,-0.20167 -0.024,-0.20844 -0.2251,-0.20844 -0.1259,0 -0.2583,-0.032 -0.2975,-0.0714 -0.1017,-0.10072 -0.1017,-2.1966 0,-2.29717 0.097,-0.0973 0.3745,-0.0903 0.4595,0.0121 0.044,0.053 0.073,0.38474 0.082,0.90756 l 0.024,0.8239 0.6099,0.0169 0.61,0.017 v -0.22829 c 0,-0.2871 0.085,-0.37104 0.3687,-0.37104 h 0.2252 v -0.3306 -0.33056 l -0.2825,0.017 c -0.2801,0.0169 -0.2828,0.0218 -0.3012,0.24232 -0.024,0.25611 -0.2251,0.43557 -0.422,0.37282 -0.1694,-0.0535 -0.1936,-0.18302 -0.1936,-0.97051 0,-0.64264 0.024,-0.70454 0.1307,-0.80121 0.07,-0.0579 0.2082,-0.10482 0.3012,-0.10482 h 0.1718 v -0.59512 -0.5951 h -0.6248 -0.6249 v 0.22612 c 0,0.25718 -0.082,0.36898 -0.2752,0.36898 -0.2748,0 -0.3198,-0.13049 -0.3198,-0.92243 0,-0.79221 0.044,-0.92243 0.3198,-0.92243 0.1913,0 0.2752,0.11185 0.2752,0.36898 v 0.22611 h 0.6249 0.6248 v -0.20408 c 0,-0.31693 0.1162,-0.39108 0.6251,-0.39108 0.5658,0 0.7406,0.14865 0.5631,0.48 -0.043,0.084 -0.1258,0.11499 -0.2977,0.11499 h -0.2349 v 0.91793 0.9179 l 0.8379,0.017 c 0.9357,0.0218 1.0069,0.0533 1.0069,0.44734 0,0.19029 0.024,0.19683 0.2397,0.19683 0.1961,0 0.251,0.0261 0.307,0.14864 0.051,0.11161 0.051,0.18642 0,0.29758 -0.056,0.12275 -0.109,0.14865 -0.307,0.14865 h -0.2397 v 0.29754 0.29755 h 0.2975 0.2976 v -0.20408 c 0,-0.32451 0.2154,-0.47165 0.48,-0.32949 0.099,0.0533 0.1162,0.12807 0.1162,0.55345 0,0.56171 -0.041,0.6347 -0.3689,0.6347 -0.2227,0 -0.2252,0.005 -0.2252,0.23071 0,0.12711 -0.036,0.25968 -0.077,0.29505 -0.041,0.0353 -0.3169,0.0721 -0.6098,0.0816 l -0.5324,0.017 -0.036,0.25801 c -0.036,0.26054 -0.1187,0.36427 -0.3034,0.36594 -0.2203,0.002 -0.2871,-0.16244 -0.2871,-0.71749 v -0.53138 h -0.2915 -0.292 l -0.024,0.54048 c -0.026,0.70653 -0.032,0.70929 -0.9546,0.70929 -0.6234,0 -0.7161,-0.0121 -0.8216,-0.11911 z m 2.9755,-2.08289 v -0.29758 h -0.2975 -0.2978 v 0.29758 0.29754 h 0.2978 0.2975 z m 1.3483,2.09306 c -0.1332,-0.14671 -0.1259,-0.32565 0.024,-0.45814 0.1888,-0.17141 0.4387,-0.0596 0.4644,0.20844 0.029,0.3223 -0.2777,0.48063 -0.4867,0.24977 z m 1.2547,0.0346 c -0.053,-0.0414 -0.1041,-0.17939 -0.1162,-0.31239 -0.024,-0.23459 -0.024,-0.23847 -0.2847,-0.26781 -0.2227,-0.0249 -0.2755,-0.0554 -0.3232,-0.1915 -0.044,-0.12807 -0.034,-0.18713 0.051,-0.28267 0.097,-0.10918 0.1816,-0.1208 0.8618,-0.1208 0.8118,0 0.8955,0.0283 0.8955,0.30218 0,0.19973 -0.094,0.27781 -0.3573,0.30293 -0.1888,0.0169 -0.2106,0.0383 -0.2276,0.22806 -0.034,0.35222 -0.273,0.51619 -0.5013,0.3422 z m 1.8397,-0.0346 c -0.1283,-0.1426 -0.1259,-0.32482 0.024,-0.4473 0.1404,-0.12807 0.2655,-0.12468 0.3878,0.01 0.1259,0.13702 0.1283,0.33099 0,0.45228 -0.1259,0.12419 -0.2826,0.11814 -0.4033,-0.017 z m 0.8548,-0.54578 c -0.2227,-0.0249 -0.2757,-0.0554 -0.3231,-0.1915 -0.044,-0.12807 -0.034,-0.18714 0.051,-0.28267 0.099,-0.10918 0.1816,-0.12081 0.8621,-0.12081 0.5057,0 0.7759,0.0242 0.8238,0.0717 0.095,0.0959 0.09,0.37408 -0.024,0.45647 -0.087,0.0724 -0.979,0.11499 -1.4066,0.0673 z m -10.1754,-0.115 c -0.034,-0.0634 -0.061,-0.15276 -0.061,-0.199 0,-0.12056 0.1938,-0.28095 0.3436,-0.28095 0.1259,0 0.3113,0.20045 0.3113,0.33629 0,0.24016 -0.4791,0.35634 -0.5934,0.14381 z m -2.3035,-1.2203 c -0.5428,-0.16971 -0.9909,-0.58095 -1.2611,-1.15692 -0.1525,-0.32601 -0.1598,-0.36886 -0.1767,-1.69319 l -0.024,-1.3587 1.388,0.0218 1.3877,0.0218 0.3176,0.16704 c 0.4248,0.22345 0.8173,0.62729 1.011,1.04067 0.1549,0.33147 0.1597,0.36912 0.1791,1.69289 l 0.024,1.35387 -1.2986,-0.005 c -0.8912,-0.002 -1.3761,-0.0283 -1.5465,-0.0816 z m 1.5164,-0.7402 c 0.5055,-0.32419 0.7633,-0.8452 0.7101,-1.43367 -0.053,-0.57877 -0.4067,-1.07206 -0.9323,-1.29866 -0.277,-0.11935 -0.9243,-0.11814 -1.203,10e-4 -1.1262,0.48533 -1.2594,2.0253 -0.2348,2.71078 0.344,0.23 0.4164,0.24755 0.9369,0.22661 0.3617,-0.017 0.4718,-0.046 0.7224,-0.20699 z m -1.4525,-0.44933 c -0.1017,-0.0443 -0.201,-0.12589 -0.2228,-0.18133 -0.024,-0.0554 -0.039,-0.36757 -0.039,-0.6937 0,-0.55021 0.024,-0.60347 0.1453,-0.73901 0.1355,-0.13582 0.1888,-0.14599 0.7475,-0.14599 0.331,0 0.6508,0.0261 0.7108,0.0584 0.155,0.0838 0.2397,0.3759 0.2397,0.83445 0,0.53079 -0.082,0.74151 -0.3259,0.85808 -0.2462,0.11693 -0.9971,0.1225 -1.2574,0.01 z m 9.6281,-0.10459 c 0.024,-1.30668 0.029,-1.40378 0.1549,-1.66505 0.2058,-0.41793 0.5561,-0.77916 0.9752,-1.00639 l 0.3762,-0.20408 1.3877,-0.017 1.3877,-0.017 -0.024,1.35876 c -0.024,1.32428 -0.024,1.36718 -0.1767,1.69316 -0.213,0.45279 -0.5116,0.76853 -0.958,1.01055 l -0.373,0.20239 -1.3875,0.017 -1.3876,0.0169 z m 2.6889,0.66334 c 0.5571,-0.20844 0.9897,-0.83157 0.9897,-1.42608 0,-0.63075 -0.4919,-1.28351 -1.1003,-1.46041 -0.752,-0.21861 -1.526,0.13025 -1.8545,0.83513 -0.3111,0.66845 -0.09,1.48643 0.5186,1.90737 0.4191,0.29051 0.9212,0.34045 1.4465,0.14404 z m -1.1938,-0.55817 c -0.2471,-0.11136 -0.3372,-0.40645 -0.3072,-1.00459 0.024,-0.37605 0.048,-0.47621 0.1671,-0.60345 0.138,-0.14501 0.1743,-0.15252 0.7771,-0.15252 0.5856,0 0.6437,0.01 0.7633,0.13775 0.1162,0.12347 0.1283,0.20312 0.1283,0.7633 0,0.59538 -0.024,0.6325 -0.1525,0.76979 -0.1356,0.12662 -0.2179,0.14622 -0.6696,0.15978 -0.3501,0.01 -0.5769,-0.0121 -0.7057,-0.07 z m -2.6625,-0.01 c -0.1404,-0.14162 -0.1162,-0.36524 0.056,-0.47731 0.138,-0.0905 0.1598,-0.0905 0.2977,0 0.2736,0.17915 0.155,0.57081 -0.1718,0.57081 -0.051,0 -0.1308,-0.0421 -0.1816,-0.0937 z m -1.2497,-1.24974 c -0.109,-0.10846 -0.1162,-0.2249 -0.034,-0.38648 0.044,-0.0828 0.1259,-0.11499 0.2888,-0.11499 h 0.2276 l 0.041,-0.54811 c 0.044,-0.58373 0.094,-0.70217 0.2956,-0.70074 0.2615,0.002 0.3036,0.0859 0.3349,0.66625 l 0.026,0.55284 0.2082,0.0169 c 0.2651,0.0252 0.3571,0.10314 0.3571,0.30299 0,0.27412 -0.085,0.30216 -0.9004,0.30216 -0.6091,0 -0.7757,-0.017 -0.8509,-0.0937 z m -0.59,-0.61046 c -0.1283,-0.14284 -0.1259,-0.3248 0.024,-0.44727 0.1405,-0.12807 0.2654,-0.12468 0.3879,0.01 0.1259,0.13703 0.1283,0.33102 0,0.45229 -0.1259,0.12419 -0.2825,0.11814 -0.4033,-0.017 z"
       id="path218-4" /></g></svg>
