<?xml version="1.0" encoding="UTF-8" standalone="no"?>
<!-- Created with Inkscape (http://www.inkscape.org/) -->

<svg
   width="25.671043mm"
   height="35.67347mm"
   viewBox="0 0 25.671043 35.673469"
   version="1.1"
   id="svg210"
   xml:space="preserve"
   xmlns="http://www.w3.org/2000/svg"
   xmlns:svg="http://www.w3.org/2000/svg"><defs
     id="defs207" /><g
     id="layer1"
     transform="translate(-562.08454,-261.32654)"><g
       id="g2203"
       transform="matrix(0.27340249,0,0,0.27340249,-30.042378,137.6446)"><g
         id="g2202"><path
           style="fill:#5b5a5a;fill-opacity:1;stroke:none;stroke-width:0.657206;stroke-dasharray:none;stroke-opacity:1"
           d="m 2222.4976,520.61265 c 0.482,-0.22873 0.8348,-0.68389 1.0384,-1.34722 0.2142,-0.69133 0.1076,-0.68392 2.0934,-0.0744 4.7373,1.45875 13.5209,2.01858 14.8538,0.94868 1.4381,-1.15339 0.5556,-9.43864 -1.4594,-13.68734 -0.221,-0.46891 -0.2544,-0.64046 -0.1275,-0.67647 0.094,-0.0744 0.4486,-0.10862 0.7926,-0.18296 1.5426,-0.33166 1.7768,-1.03387 1.258,-3.72489 -0.8663,-4.48431 -2.6712,-8.41848 -5.2253,-11.39203 l -0.7338,-0.85658 0.3548,-0.1944 c 0.8918,-0.49751 0.9843,-1.43646 0.2612,-2.65845 -1.9247,-3.26459 -4.8618,-6.60293 -7.5631,-8.59691 -0.7666,-0.5661 -1.1837,-0.95324 -1.112,-1.03273 0.088,-0.0744 0.3681,-0.41169 0.6821,-0.75537 1.6497,-1.80986 0.784,-2.76424 -3.9546,-4.38138 -10.0214,-3.41668 -19.2569,-1.78524 -29.6137,5.22995 -0.6093,0.41745 -0.3282,0.59014 -3.16,-1.97623 -3.2811,-2.9758 -4.2351,-4.35163 -4.6863,-6.75905 -0.4353,-2.31477 -3.6052,-2.39884 -3.6052,-0.0916 0,2.67214 1.8123,5.47754 5.9691,9.24419 l 2.3753,2.15239 -0.6159,0.61929 c -8.2635,8.30526 -10.2765,17.42139 -5.7764,26.15496 1.7669,3.43157 2.7396,3.90845 4.9315,2.42287 l 0.8087,-0.54897 0.7505,0.73764 c 4.8597,4.77766 12.1544,8.30813 13.5121,6.53889 l 0.2344,-0.30877 0.5021,0.34309 c 4.1621,2.80141 15.0218,5.86469 17.2015,4.85199 z m 10.2002,-3.18793 c -2.481,-0.21731 -5.4723,-0.87321 -7.4647,-1.63658 l -0.8697,-0.33169 0.1009,-0.69818 c 0.086,-0.38315 0.1076,-1.57998 0.1076,-2.66074 v -1.96537 l 1.4172,-0.0744 c 2.1664,-0.11433 2.5855,-0.4689 2.7033,-2.29591 l 0.088,-1.18541 2.8567,-0.0744 c 1.5719,-0.0744 2.9665,-0.10862 3.101,-0.14861 1.0639,-0.37169 3.2397,8.10628 2.7716,10.79675 -0.088,0.52037 -1.1916,0.57582 -4.8175,0.25732 z m -15.8567,-0.47462 c -4.0021,-0.86291 -7.103,-2.11979 -9.8245,-3.98054 l -0.3214,-0.2173 0.8261,-1.4753 c 0.4553,-0.81201 1.0599,-2.06661 1.3505,-2.7894 l 0.5288,-1.31235 1.5291,0.62616 c 2.6304,1.07674 5.3886,1.73777 8.651,2.07118 l 1.4394,0.1486 -0.088,2.37767 c -0.088,2.01856 -0.2678,3.71805 -0.5891,4.89944 -0.094,0.3431 -0.4887,0.30879 -3.5168,-0.34309 z m -17.1995,-5.47243 c -2.2348,-1.27233 -4.0095,-2.5704 -5.5694,-4.07431 l -1.0632,-1.02643 0.9252,-0.83316 c 2.1035,-1.89448 4.444,-4.55579 5.3526,-6.08827 l 0.3481,-0.58327 1.355,0.57182 c 1.5144,0.64046 2.8855,1.07162 4.6214,1.46503 l 1.1689,0.26878 -0.088,0.99955 c -0.094,2.75565 -1.4522,6.3942 -3.5777,9.60791 l -0.7585,1.1488 -0.863,-0.43459 c -0.4687,-0.22873 -1.3289,-0.69821 -1.902,-1.02072 z m 21.2754,-4.58151 c -3.1693,-0.25161 -6.3848,-0.96927 -8.7327,-1.94251 -1.9636,-0.81315 -1.973,-0.82287 -1.8504,-1.86073 0.088,-0.47463 0.1075,-0.97498 0.1075,-1.10537 0,-0.22872 0.1076,-0.24014 3.5784,-0.24014 5.2071,0 4.9547,0.21726 4.9547,-4.22471 v -3.04155 l 1.0404,-0.0744 c 0.5691,-0.0744 1.1682,-0.0916 1.3276,-0.12004 1.3095,-0.22875 3.5717,6.2358 3.7592,10.74641 l 0.086,1.98367 h -1.3717 c -0.7586,0 -2.0594,-0.0744 -2.8969,-0.12004 z m -33.8676,-3.37037 c -2.7376,-6.91286 -0.9982,-13.51694 5.3792,-20.42466 l 0.8944,-0.96925 0.328,0.33166 c 6.8294,6.99634 5.5728,14.53823 -3.6733,22.0538 l -1.7662,1.4353 -0.2945,-0.50321 c -0.1673,-0.27448 -0.5557,-1.14596 -0.8643,-1.92708 z m 41.408,-1.54279 c -0.4285,-2.72365 -1.1998,-5.06242 -2.356,-7.12559 -0.3682,-0.66961 -0.6829,-1.23458 -0.6829,-1.26374 0,-0.0744 0.3281,-0.143 0.7252,-0.25162 1.1172,-0.30877 3.5743,-1.1774 4.6883,-1.65602 l 0.9995,-0.42887 0.3347,0.33165 c 2.4585,2.46918 6.245,10.71785 5.1778,11.28167 -0.1338,0.0742 -2.1015,0.34307 -3.8193,0.52037 -0.2276,0.0744 -1.4146,0.0744 -2.6331,0.0744 l -2.2166,-0.0744 z m -17.6582,-3.37211 c -3.0662,-0.29734 -6.1185,-1.01613 -8.3866,-1.98768 -1.4903,-0.641 -1.4046,-0.46319 -1.0331,-2.15292 0.5222,-2.38398 0.221,-5.25972 -0.8261,-7.74718 l -0.4619,-1.11049 0.8744,0.28019 c 3.2764,1.05217 7.1393,1.31234 10.3166,0.69078 1.0605,-0.20585 0.9801,-0.25735 1.8076,1.19514 1.4875,2.61896 2.3525,6.11857 2.3525,9.52553 v 1.425 l -1.6977,-4.5e-4 c -0.934,-0.001 -2.2596,-0.0744 -2.9457,-0.11433 z m 7.1915,-8.38075 c -0.4151,-1.35123 -1.1301,-2.96608 -1.8397,-4.12346 l -0.5289,-0.86804 0.9157,-0.43459 c 2.1759,-1.03845 4.2085,-2.33307 6.4713,-4.1212 l 1.3952,-1.10364 1.2774,0.96528 c 2.0311,1.53479 4.2538,3.92445 5.8813,6.31815 l 0.5022,0.7365 -1.2607,0.60444 c -3.98,1.91677 -8.8511,3.22455 -11.7333,3.15078 l -0.7418,-0.0742 z m -12.0433,-6.42796 c -2.9945,-0.30877 -6.9719,-1.84757 -9.5428,-3.67972 l -0.3949,-0.28019 1.0871,-0.74166 c 8.317,-5.66399 16.6594,-7.105 24.9971,-4.31733 0.8764,0.29735 1.647,0.57583 1.7106,0.62617 0.1673,0.1316 -4.037,3.70944 -5.4529,4.64153 -4.5184,2.97296 -8.4576,4.16465 -12.4049,3.75179 z"
           id="path481-11-5" /><g
           id="g779"><path
             style="fill:none;fill-opacity:1;stroke:#5b5a5a;stroke-width:6.24062;stroke-linecap:round;stroke-linejoin:round;stroke-dasharray:none;stroke-opacity:1"
             d="m 2168.8903,465.40468 c 0,-6.03946 5.9855,-9.9999 15.2924,-9.90217 h 72.3617 v 76.91452 h -75.118 c -8.099,0 -12.1642,4.4798 -12.2673,9.75243 -0.098,4.82343 2.7278,10.32714 11.1772,10.29525"
             id="path776" /><path
             style="fill:none;fill-opacity:1;stroke:#5b5a5a;stroke-width:6.24062;stroke-linecap:round;stroke-linejoin:round;stroke-dasharray:none;stroke-opacity:1"
             d="m 2168.8903,465.40458 v 78.12261"
             id="path777" /><path
             style="fill:none;fill-opacity:1;stroke:#5b5a5a;stroke-width:6.24062;stroke-linecap:round;stroke-linejoin:round;stroke-dasharray:none;stroke-opacity:1"
             d="m 2225.9821,553.18082 h 30.2493 v -22.45121"
             id="path778" /><path
             style="fill:none;fill-opacity:1;stroke:#5b5a5a;stroke-width:6.24062;stroke-linecap:round;stroke-linejoin:round;stroke-dasharray:none;stroke-opacity:1"
             d="m 2185.2454,541.96282 h 36.7019 v 36.97074 l -18.5521,-13.8472 -18.1498,14.65377 z"
             id="path779" /></g></g></g></g></svg>
