<?xml version="1.0" encoding="UTF-8" standalone="no"?>
<!-- Created with Inkscape (http://www.inkscape.org/) -->

<svg
   width="139.37067mm"
   height="30.608948mm"
   viewBox="0 0 139.37067 30.608948"
   version="1.1"
   id="svg5"
   xml:space="preserve"
   inkscape:version="1.2.2 (b0a8486541, 2022-12-01)"
   sodipodi:docname="HopSeparators.svg"
   xmlns:inkscape="http://www.inkscape.org/namespaces/inkscape"
   xmlns:sodipodi="http://sodipodi.sourceforge.net/DTD/sodipodi-0.dtd"
   xmlns="http://www.w3.org/2000/svg"
   xmlns:svg="http://www.w3.org/2000/svg"><sodipodi:namedview
     id="namedview7"
     pagecolor="#ffffff"
     bordercolor="#000000"
     borderopacity="0.25"
     inkscape:showpageshadow="2"
     inkscape:pageopacity="0.0"
     inkscape:pagecheckerboard="0"
     inkscape:deskcolor="#d1d1d1"
     inkscape:document-units="mm"
     showgrid="false"
     inkscape:zoom="1.092539"
     inkscape:cx="403.18926"
     inkscape:cy="509.36396"
     inkscape:window-width="1920"
     inkscape:window-height="1020"
     inkscape:window-x="0"
     inkscape:window-y="32"
     inkscape:window-maximized="1"
     inkscape:current-layer="layer1" /><defs
     id="defs2" /><g
     inkscape:label="Calque 1"
     inkscape:groupmode="layer"
     id="layer1"
     transform="translate(-31.818251,-93.890493)"><path
       style="fill:#000000;stroke-width:0.257659;stroke-dasharray:none"
       d="m 106.15965,120.03201 c -0.1916,0.0565 -0.41848,0.01 -0.66987,-0.1378 -0.26024,-0.15286 -0.23225,-0.17867 -0.55834,0.51493 -0.77622,1.65082 -2.85826,4.06947 -3.52093,4.09016 -0.71439,0.0223 -2.973443,-2.68942 -3.731936,-4.47975 -0.08334,-0.19672 -0.126642,-0.25604 -0.170829,-0.23404 -0.03257,0.0162 -0.148357,0.0822 -0.257275,0.14668 -0.496815,0.29394 -0.765691,0.14552 -1.439623,-0.79474 -1.123196,-1.56706 -1.841021,-3.20958 -2.078498,-4.75607 l -0.06837,-0.44521 -0.149543,0.0312 c -0.377995,0.0787 -0.6828,-0.1785 -0.864813,-0.72983 -0.486118,-1.47239 -0.735084,-3.22615 -0.641149,-4.51624 0.02676,-0.36755 0.01753,-0.58936 -0.02476,-0.59497 -0.03708,-0.005 -0.217904,-0.0278 -0.401823,-0.0507 -0.965494,-0.12062 -1.031125,-0.62783 -0.301176,-2.3276 1.542655,-3.59225 4.398454,-5.46938 9.156395,-6.01858 0.28092,-0.03244 0.26135,0.09424 0.21661,-1.402193 -0.0518,-1.733444 -0.22016,-2.390635 -0.826903,-3.228082 -0.583406,-0.805254 0.204223,-1.643309 0.895123,-0.952402 0.80164,0.801632 1.17909,2.107191 1.24376,4.302022 l 0.037,1.254541 0.34336,0.02788 c 4.60821,0.374244 7.85832,2.592754 9.32523,6.365334 0.57637,1.48232 0.47065,1.87439 -0.53672,1.99037 l -0.37142,0.0428 0.029,0.41354 c 0.18808,2.67836 -0.62195,5.60654 -1.50034,5.42358 l -0.15252,-0.0317 -0.0278,0.23487 c -0.22584,1.90664 -2.08947,5.60782 -2.95178,5.86226 z m -3.56947,1.65753 c 0.5705,-0.70089 1.14021,-1.66399 1.42161,-2.4034 l 0.12288,-0.32288 -0.23461,-0.1826 c -0.12904,-0.10043 -0.50118,-0.44652 -0.82706,-0.76903 l -0.59263,-0.58627 -0.38519,0.34092 c -0.58883,0.52123 -0.80275,0.5218 -1.38122,0.004 l -0.37497,-0.33579 -0.750846,0.71309 c -0.412977,0.39218 -0.790527,0.72971 -0.838943,0.75013 -0.383296,0.16128 1.601639,3.26142 2.528319,3.94882 0.17838,0.1323 0.47873,-0.13239 1.31241,-1.15653 z m 3.92062,-4.20481 c 0.76651,-1.28429 1.18415,-2.4556 1.32315,-3.71088 l 0.0162,-0.14616 -0.65342,-0.23211 c -0.35939,-0.12767 -0.89163,-0.34828 -1.18277,-0.49026 l -0.52934,-0.25812 -0.20406,0.57968 c -0.35097,0.99697 -0.8597,1.9017 -1.59553,2.83744 l -0.32454,0.41279 0.73258,0.6935 c 0.62213,0.58897 1.18417,1.04638 1.62043,1.31888 0.12768,0.0798 0.21805,-0.0341 0.79734,-1.00471 z m 2.76531,-6.04812 c 0.1908,-0.95429 0.25592,-1.79842 0.20433,-2.64905 l -0.0352,-0.58034 -0.48701,-0.0129 c -1.10711,-0.0293 -2.50521,-0.22812 -3.19742,-0.45473 l -0.26507,-0.0868 -0.17588,0.5183 c -0.19654,0.57924 -0.41736,1.061 -0.74431,1.62383 l -0.22001,0.37874 0.30903,0.29107 c 0.85149,0.80171 2.28998,1.54581 3.79869,1.96485 l 0.53925,0.14978 0.0924,-0.34942 c 0.0508,-0.19221 0.13234,-0.54919 0.18115,-0.79334 z m -6.82527,4.07668 c 0.73562,-0.88826 1.34498,-1.92678 1.65458,-2.81984 0.25909,-0.74734 0.25866,-0.75245 -0.0839,-1.03261 -0.15766,-0.12895 -0.3196,-0.26544 -0.35986,-0.30329 -0.0713,-0.067 -0.0976,-0.0444 -0.98763,0.84558 -1.33401,1.33401 -1.20519,1.33388 -2.53688,0.002 l -0.912236,-0.91223 -0.288046,0.24463 c -0.158432,0.13453 -0.32821,0.27107 -0.377269,0.30344 -0.404364,0.26676 0.955515,2.7856 2.260411,4.18684 l 0.57363,0.61598 0.35163,-0.35167 c 0.19339,-0.19342 0.51088,-0.54398 0.7055,-0.77904 z m 7.66607,-9.68817 c -1.37214,-2.7751 -3.79877,-4.31056 -7.50461,-4.74857 l -0.52002,-0.0615 0.0169,0.18625 c 0.34861,3.84808 2.93264,5.78847 7.55606,5.67395 l 0.88296,-0.0219 -0.0747,-0.22917 c -0.0412,-0.126 -0.20154,-0.48564 -0.35654,-0.79912 z M 99.045105,115.9715 c -0.70792,-0.92639 -1.211194,-1.82595 -1.53372,-2.74142 -0.104115,-0.29552 -0.196311,-0.54432 -0.204874,-0.55289 -0.0086,-0.009 -0.126675,0.0411 -0.262455,0.11042 -0.378886,0.19337 -1.268857,0.56238 -1.698034,0.70408 l -0.385342,0.12722 0.01507,0.1863 c 0.110925,1.37114 1.614997,4.81531 2.057248,4.7109 0.05736,-0.0135 0.640659,-0.43639 1.134905,-0.82271 0.0658,-0.0514 0.37335,-0.35087 0.683522,-0.66542 l 0.563693,-0.57218 z m 3.512755,-5.53582 c 0.69772,-0.87329 1.26258,-1.8722 1.55221,-2.74502 0.19021,-0.57321 0.2216,-0.49819 -0.38095,-0.91047 -0.84902,-0.58092 -1.63321,-1.52177 -2.11278,-2.53475 l -0.21405,-0.45218 -0.13964,0.3082 c -0.5235,1.15547 -1.435541,2.22301 -2.435581,2.85087 -0.334031,0.20973 -0.329321,0.17266 -0.104497,0.82165 0.404211,1.16685 1.232601,2.43826 2.254418,3.46008 l 0.42753,0.42753 0.43474,-0.4353 c 0.23907,-0.23943 0.56249,-0.59516 0.71861,-0.7906 z m -4.35663,-0.67164 c -0.30033,-0.50983 -0.600214,-1.17897 -0.765436,-1.70797 l -0.123963,-0.39689 -0.366197,0.10358 c -0.868942,0.24575 -1.778191,0.37816 -2.894114,0.42144 l -0.688425,0.0267 -0.0377,0.61688 c -0.05993,0.9806 0.08692,2.26712 0.388321,3.40217 l 0.09263,0.34881 0.504849,-0.14086 c 1.59447,-0.44486 3.235106,-1.30086 3.951099,-2.06149 l 0.184414,-0.19572 z m 1.15754,-5.01324 c 0.67323,-0.86126 1.23231,-2.34067 1.34115,-3.54883 l 0.0167,-0.18576 -0.50108,0.0565 c -3.829766,0.43197 -6.399504,2.13736 -7.699361,5.10963 -0.136678,0.31254 -0.249356,0.59437 -0.250392,0.62629 -0.0026,0.0821 2.146911,0.0781 2.78912,-0.005 2.049669,-0.26565 3.416577,-0.91757 4.303833,-2.05267 z"
       id="path2598" /><path
       style="fill:none;stroke:#000000;stroke-width:1.70712;stroke-linecap:round;stroke-dasharray:none"
       d="m 38.934188,110.00507 c 0.137303,5.56341 -6.262376,5.1944 -6.262376,0 0,-7.40863 9.206202,-8.60124 23.990118,0 14.783914,8.60123 24.493971,7.48614 24.423214,0 -0.04978,-5.26678 -6.695473,-6.29199 -6.695473,0"
       id="path2600"
       sodipodi:nodetypes="cszsc" /><path
       style="fill:none;stroke:#000000;stroke-width:1.70712;stroke-linecap:round;stroke-dasharray:none"
       d="m 164.07298,109.84068 c -0.1373,5.56341 6.26238,5.1944 6.26238,0 0,-7.40863 -9.20621,-8.60124 -23.99013,0 -14.78391,8.60123 -24.49396,7.48614 -24.42321,0 0.0498,-5.26678 6.69547,-6.29199 6.69547,0"
       id="path2604"
       sodipodi:nodetypes="cszsc" /></g></svg>
