<?xml version="1.0" encoding="UTF-8" standalone="no"?>
<!-- Created with Inkscape (http://www.inkscape.org/) -->

<svg
   width="210mm"
   height="297mm"
   viewBox="0 0 210 297"
   version="1.1"
   id="svg5"
   xml:space="preserve"
   inkscape:version="1.2.2 (b0a8486541, 2022-12-01)"
   sodipodi:docname="HopSeparators.svg"
   xmlns:inkscape="http://www.inkscape.org/namespaces/inkscape"
   xmlns:sodipodi="http://sodipodi.sourceforge.net/DTD/sodipodi-0.dtd"
   xmlns="http://www.w3.org/2000/svg"
   xmlns:svg="http://www.w3.org/2000/svg"><sodipodi:namedview
     id="namedview7"
     pagecolor="#ffffff"
     bordercolor="#000000"
     borderopacity="0.25"
     inkscape:showpageshadow="2"
     inkscape:pageopacity="0.0"
     inkscape:pagecheckerboard="0"
     inkscape:deskcolor="#d1d1d1"
     inkscape:document-units="mm"
     showgrid="false"
     inkscape:zoom="1.092539"
     inkscape:cx="337.28773"
     inkscape:cy="604.55508"
     inkscape:window-width="1665"
     inkscape:window-height="758"
     inkscape:window-x="50"
     inkscape:window-y="118"
     inkscape:window-maximized="0"
     inkscape:current-layer="layer1" /><defs
     id="defs2" /><g
     inkscape:label="Calque 1"
     inkscape:groupmode="layer"
     id="layer1"><path
       style="fill:#000000;stroke-width:0.257659;stroke-dasharray:none"
       d="m 85.179901,155.47992 c -0.175466,-0.0955 -0.302892,-0.28893 -0.376234,-0.5711 -0.07593,-0.29211 -0.03788,-0.29057 -0.758909,-0.0307 -1.716184,0.61844 -4.898648,0.85646 -5.381856,0.40251 -0.520922,-0.48938 -0.200838,-4.00425 0.528781,-5.80654 0.08017,-0.19803 0.0915,-0.2706 0.0447,-0.28629 -0.03446,-0.0116 -0.163008,-0.0468 -0.285641,-0.0782 -0.559152,-0.14345 -0.644321,-0.43853 -0.456005,-1.57993 0.313861,-1.9023 0.967723,-3.57132 1.893331,-4.83277 l 0.266471,-0.36316 -0.127786,-0.0837 c -0.322956,-0.21161 -0.356594,-0.60903 -0.09545,-1.12758 0.697406,-1.38488 1.761455,-2.80102 2.740108,-3.64683 0.27882,-0.24097 0.429132,-0.40434 0.403198,-0.43821 -0.02274,-0.0297 -0.134453,-0.17371 -0.248254,-0.32001 -0.597415,-0.768 -0.285171,-1.17306 1.4329,-1.85883 3.630924,-1.44928 6.977614,-0.75726 10.730324,2.21877 0.22158,0.17571 0.11817,0.25144 1.14467,-0.83833 1.18909,-1.26237 1.53476,-1.84611 1.69789,-2.86731 0.15687,-0.98193 1.3064,-1.01759 1.3064,-0.0405 0,1.13368 -0.65627,2.32375 -2.16252,3.92146 l -0.86095,0.91324 0.22308,0.26251 c 2.99386,3.52312 3.723321,7.39002 2.09296,11.0949 -0.6406,1.45571 -0.9926,1.65819 -1.78692,1.02789 l -0.29288,-0.2324 -0.27188,0.31296 c -1.76089,2.02688 -4.4042,3.52464 -4.89595,2.77415 l -0.0854,-0.13029 -0.18575,0.1464 c -1.5079,1.18851 -5.442814,2.48785 -6.232469,2.05802 z m -3.696043,-1.35194 c 0.898998,-0.0922 1.982861,-0.37037 2.704686,-0.69423 l 0.315201,-0.14142 -0.03678,-0.29501 c -0.02023,-0.16226 -0.03865,-0.67013 -0.04103,-1.12861 l -0.0045,-0.83361 -0.513437,-0.0313 C 83.123071,150.956 82.9714,150.80513 82.92868,150.02977 l -0.0277,-0.50258 -1.035158,-0.0267 c -0.569337,-0.0147 -1.074974,-0.043 -1.123645,-0.0628 -0.385072,-0.15699 -1.173644,3.4387 -1.004452,4.58003 0.03259,0.21968 0.432126,0.2449 1.745808,0.11022 z m 5.745541,-0.20096 c 1.45014,-0.36612 2.57369,-0.89904 3.5596,-1.68837 l 0.1148,-0.0919 -0.29791,-0.62617 c -0.16385,-0.3444 -0.38421,-0.87675 -0.48968,-1.18301 l -0.19178,-0.55682 -0.55419,0.26561 c -0.95314,0.45679 -1.95261,0.7368 -3.13459,0.87816 l -0.521363,0.0624 0.02763,1.00839 c 0.02345,0.85638 0.09743,1.57724 0.213225,2.07841 0.03388,0.14669 0.178301,0.13007 1.274248,-0.14663 z m 6.23203,-2.32129 c 0.80971,-0.53987 1.45264,-1.09071 2.01765,-1.72868 l 0.38548,-0.43525 -0.33526,-0.35347 c -0.76214,-0.80356 -1.61015,-1.93276 -1.93938,-2.58246 l -0.12608,-0.24879 -0.49085,0.24213 c -0.54856,0.27061 -1.04536,0.45512 -1.67453,0.62191 l -0.42338,0.11224 0.0127,0.42434 c 0.0352,1.16899 0.52621,2.71231 1.29672,4.07543 l 0.2754,0.48722 0.31241,-0.18174 c 0.17183,-0.1 0.48191,-0.29476 0.68907,-0.43288 z m -7.708836,-1.94355 c 1.148256,-0.10793 2.313486,-0.41139 3.163886,-0.82396 0.71166,-0.34525 0.71497,-0.34916 0.67087,-0.78947 -0.0203,-0.20266 -0.0383,-0.41368 -0.04,-0.46892 -0.003,-0.0978 -0.0376,-0.10044 -1.29628,-0.10044 -1.88657,0 -1.79539,0.091 -1.79539,-1.79229 v -1.2901 l -0.376658,-0.0307 c -0.207157,-0.0169 -0.423759,-0.0404 -0.481339,-0.0522 -0.474557,-0.0973 -1.294067,2.64537 -1.362186,4.55889 l -0.02995,0.84119 0.497308,-4e-5 c 0.273518,-2e-5 0.745898,-0.0234 1.049729,-0.052 z m 12.271296,-1.42984 c 0.99205,-2.93254 0.3619,-5.73416 -1.94881,-8.66431 l -0.32424,-0.41117 -0.11977,0.14363 c -2.4745,2.96751 -2.01938,6.16675 1.33085,9.35503 l 0.63981,0.60888 0.10921,-0.21489 c 0.06,-0.11819 0.20089,-0.48591 0.31295,-0.81717 z m -15.00352,-0.65437 c 0.15448,-1.15563 0.434703,-2.14759 0.853973,-3.02298 0.135348,-0.28259 0.246084,-0.52371 0.246084,-0.53582 0,-0.0121 -0.118646,-0.0605 -0.263657,-0.10751 -0.404647,-0.13118 -1.294885,-0.49955 -1.698553,-0.70283 l -0.362436,-0.18252 -0.121074,0.14239 c -0.891108,1.04798 -2.262969,4.54692 -1.876422,4.78581 0.05012,0.031 0.761589,0.14444 1.384248,0.22075 0.08286,0.0102 0.512097,0.0159 0.953847,0.0128 l 0.803182,-0.006 z m 6.39831,-1.43053 c 1.11087,-0.12414 2.21662,-0.43106 3.0386,-0.84344 0.53982,-0.27082 0.50897,-0.19558 0.37443,-0.91317 -0.18958,-1.01112 -0.0788,-2.23091 0.29838,-3.2863 l 0.16838,-0.4711 -0.31667,0.11919 c -1.18721,0.44687 -2.58699,0.55683 -3.73809,0.29366 -0.38449,-0.0879 -0.35495,-0.11078 -0.65488,0.5071 -0.53927,1.11091 -0.85253,2.59569 -0.85253,4.04076 v 0.60462 l 0.61521,-4e-4 c 0.33835,-2.5e-4 0.81858,-0.0231 1.06717,-0.0509 z m -2.60568,-3.55552 c 0.14814,-0.57287 0.40924,-1.25807 0.66647,-1.74896 l 0.19299,-0.3683 -0.33218,-0.1857 c -0.78821,-0.44066 -1.524772,-0.98997 -2.344456,-1.74844 l -0.505669,-0.46791 -0.462859,0.40954 c -0.735765,0.65101 -1.541633,1.66455 -2.131112,2.68028 l -0.181147,0.31214 0.456585,0.25738 c 1.442021,0.8129 3.207411,1.36772 4.251538,1.33616 l 0.2688,-0.008 z m 4.3634,-2.72639 c 1.08505,-0.13296 2.52648,-0.78373 3.45774,-1.56107 l 0.14318,-0.11952 -0.39428,-0.31436 c -3.0135,-2.4026 -6.03647,-3.01379 -9.057323,-1.83121 -0.317642,0.12435 -0.596603,0.24396 -0.619908,0.2658 -0.05991,0.0562 1.462901,1.57329 1.975861,1.96855 1.63718,1.26149 3.06471,1.76706 4.49473,1.59181 z"
       id="path2592"
       inkscape:export-filename="HopSeparators/DoubleHopSep.svg"
       inkscape:export-xdpi="96"
       inkscape:export-ydpi="96" /><path
       style="fill:none;stroke:#000000;stroke-width:1.70712;stroke-linecap:round;stroke-dasharray:none"
       d="m 31.743372,144.88343 c 0.137303,5.56341 -6.262376,5.1944 -6.262376,0 0,-7.40863 9.206202,-8.60124 23.990118,0 14.783914,8.60123 24.493971,7.48614 24.423214,0 -0.04978,-5.26678 -6.695473,-6.29199 -6.695473,0"
       id="path1136"
       sodipodi:nodetypes="cszsc" /><path
       style="fill:#000000;stroke-width:0.257659;stroke-dasharray:none"
       d="m 118.16138,155.47992 c 0.17546,-0.0955 0.30289,-0.28893 0.37623,-0.5711 0.0759,-0.29211 0.0379,-0.29057 0.75891,-0.0307 1.71619,0.61844 4.89865,0.85646 5.38186,0.40251 0.52092,-0.48938 0.20084,-4.00425 -0.52878,-5.80654 -0.0802,-0.19803 -0.0915,-0.2706 -0.0447,-0.28629 0.0345,-0.0116 0.16301,-0.0468 0.28564,-0.0782 0.55916,-0.14345 0.64433,-0.43853 0.45601,-1.57993 -0.31386,-1.9023 -0.96772,-3.57132 -1.89333,-4.83277 l -0.26647,-0.36316 0.12778,-0.0837 c 0.32296,-0.21161 0.3566,-0.60903 0.0954,-1.12758 -0.6974,-1.38488 -1.76145,-2.80102 -2.74011,-3.64683 -0.27882,-0.24097 -0.42913,-0.40434 -0.40319,-0.43821 0.0227,-0.0297 0.13445,-0.17371 0.24825,-0.32001 0.59742,-0.768 0.28517,-1.17306 -1.4329,-1.85883 -3.63092,-1.44928 -6.97761,-0.75726 -10.73032,2.21877 -0.22158,0.17571 -0.11817,0.25144 -1.14467,-0.83833 -1.18909,-1.26237 -1.53476,-1.84611 -1.69789,-2.86731 -0.15687,-0.98193 -1.3064,-1.01759 -1.3064,-0.0405 0,1.13368 0.65627,2.32375 2.16252,3.92146 l 0.86095,0.91324 -0.22308,0.26251 c -2.99386,3.52312 -3.72332,7.39002 -2.09295,11.0949 0.64059,1.45571 0.9926,1.65819 1.78691,1.02789 l 0.29288,-0.2324 0.27189,0.31296 c 1.76088,2.02688 4.4042,3.52464 4.89594,2.77415 l 0.0854,-0.13029 0.18575,0.1464 c 1.50791,1.18851 5.44281,2.48785 6.23247,2.05802 z m 3.69604,-1.35194 c -0.899,-0.0922 -1.98286,-0.37037 -2.70468,-0.69423 l -0.31521,-0.14142 0.0368,-0.29501 c 0.0202,-0.16226 0.0386,-0.67013 0.041,-1.12861 l 0.005,-0.83361 0.51343,-0.0313 c 0.78493,-0.0478 0.9366,-0.19867 0.97932,-0.97403 l 0.0277,-0.50258 1.03516,-0.0267 c 0.56933,-0.0147 1.07497,-0.043 1.12364,-0.0628 0.38507,-0.15699 1.17365,3.4387 1.00445,4.58003 -0.0326,0.21968 -0.43212,0.2449 -1.7458,0.11022 z m -5.74554,-0.20096 c -1.45014,-0.36612 -2.57369,-0.89904 -3.5596,-1.68837 l -0.1148,-0.0919 0.29791,-0.62617 c 0.16386,-0.3444 0.38421,-0.87675 0.48968,-1.18301 l 0.19178,-0.55682 0.55419,0.26561 c 0.95314,0.45679 1.95261,0.7368 3.13459,0.87816 l 0.52136,0.0624 -0.0276,1.00839 c -0.0234,0.85638 -0.0974,1.57724 -0.21323,2.07841 -0.0339,0.14669 -0.1783,0.13007 -1.27424,-0.14663 z m -6.23203,-2.32129 c -0.80971,-0.53987 -1.45264,-1.09071 -2.01765,-1.72868 l -0.38547,-0.43525 0.33525,-0.35347 c 0.76214,-0.80356 1.61016,-1.93276 1.93939,-2.58246 l 0.12607,-0.24879 0.49085,0.24213 c 0.54856,0.27061 1.04536,0.45512 1.67453,0.62191 l 0.42338,0.11224 -0.0127,0.42434 c -0.0352,1.16899 -0.5262,2.71231 -1.29671,4.07543 l -0.2754,0.48722 -0.31242,-0.18174 c -0.17183,-0.1 -0.48191,-0.29476 -0.68907,-0.43288 z m 7.70884,-1.94355 c -1.14825,-0.10793 -2.31349,-0.41139 -3.16389,-0.82396 -0.71165,-0.34525 -0.71497,-0.34916 -0.67087,-0.78947 0.0203,-0.20266 0.0383,-0.41368 0.04,-0.46892 0.003,-0.0978 0.0376,-0.10044 1.29628,-0.10044 1.88657,0 1.7954,0.091 1.7954,-1.79229 v -1.2901 l 0.37665,-0.0307 c 0.20716,-0.0169 0.42376,-0.0404 0.48134,-0.0522 0.47455,-0.0973 1.29406,2.64537 1.36218,4.55889 l 0.03,0.84119 -0.49731,-4e-5 c -0.27352,-2e-5 -0.7459,-0.0234 -1.04973,-0.052 z m -12.2713,-1.42984 c -0.99205,-2.93254 -0.3619,-5.73416 1.94881,-8.66431 l 0.32424,-0.41117 0.11977,0.14363 c 2.4745,2.96751 2.01938,6.16675 -1.33085,9.35503 l -0.63981,0.60888 -0.1092,-0.21489 c -0.06,-0.11819 -0.20089,-0.48591 -0.31296,-0.81717 z m 15.00352,-0.65437 c -0.15448,-1.15563 -0.4347,-2.14759 -0.85397,-3.02298 -0.13535,-0.28259 -0.24609,-0.52371 -0.24609,-0.53582 0,-0.0121 0.11865,-0.0605 0.26366,-0.10751 0.40465,-0.13118 1.29489,-0.49955 1.69855,-0.70283 l 0.36244,-0.18252 0.12107,0.14239 c 0.89111,1.04798 2.26297,4.54692 1.87643,4.78581 -0.0501,0.031 -0.76159,0.14444 -1.38425,0.22075 -0.0829,0.0102 -0.5121,0.0159 -0.95385,0.0128 l -0.80318,-0.006 z m -6.39831,-1.43053 c -1.11087,-0.12414 -2.21662,-0.43106 -3.0386,-0.84344 -0.53982,-0.27082 -0.50897,-0.19558 -0.37443,-0.91317 0.18958,-1.01112 0.0788,-2.23091 -0.29838,-3.2863 l -0.16838,-0.4711 0.31667,0.11919 c 1.18721,0.44687 2.58699,0.55683 3.73809,0.29366 0.38449,-0.0879 0.35495,-0.11078 0.65488,0.5071 0.53927,1.11091 0.85253,2.59569 0.85253,4.04076 v 0.60462 l -0.6152,-4e-4 c -0.33836,-2.5e-4 -0.81859,-0.0231 -1.06718,-0.0509 z m 2.60568,-3.55552 c -0.14814,-0.57287 -0.40924,-1.25807 -0.66647,-1.74896 l -0.19299,-0.3683 0.33218,-0.1857 c 0.78821,-0.44066 1.52477,-0.98997 2.34446,-1.74844 l 0.50567,-0.46791 0.46285,0.40954 c 0.73577,0.65101 1.54164,1.66455 2.13112,2.68028 l 0.18114,0.31214 -0.45658,0.25738 c -1.44202,0.8129 -3.20741,1.36772 -4.25154,1.33616 l -0.2688,-0.008 z m -4.3634,-2.72639 c -1.08505,-0.13296 -2.52648,-0.78373 -3.45774,-1.56107 l -0.14318,-0.11952 0.39429,-0.31436 c 3.01349,-2.4026 6.03646,-3.01379 9.05731,-1.83121 0.31765,0.12435 0.59661,0.24396 0.61991,0.2658 0.0599,0.0562 -1.4629,1.57329 -1.97586,1.96855 -1.63718,1.26149 -3.06471,1.76706 -4.49473,1.59181 z"
       id="path2594"
       inkscape:export-filename="HopSeparators/DoubleHopRightHalf.svg"
       inkscape:export-xdpi="96"
       inkscape:export-ydpi="96" /><path
       style="fill:none;stroke:#000000;stroke-width:1.70712;stroke-linecap:round;stroke-dasharray:none"
       d="m 171.59791,144.88343 c -0.1373,5.56341 6.26238,5.1944 6.26238,0 0,-7.40863 -9.20621,-8.60124 -23.99013,0 -14.78391,8.60123 -24.49396,7.48614 -24.42321,0 0.0498,-5.26678 6.69547,-6.29199 6.69547,0"
       id="path2596"
       sodipodi:nodetypes="cszsc" /><path
       style="fill:#000000;stroke-width:0.257659;stroke-dasharray:none"
       d="m 106.15965,120.03201 c -0.1916,0.0565 -0.41848,0.01 -0.66987,-0.1378 -0.26024,-0.15286 -0.23225,-0.17867 -0.55834,0.51493 -0.77622,1.65082 -2.85826,4.06947 -3.52093,4.09016 -0.71439,0.0223 -2.973443,-2.68942 -3.731936,-4.47975 -0.08334,-0.19672 -0.126642,-0.25604 -0.170829,-0.23404 -0.03257,0.0162 -0.148357,0.0822 -0.257275,0.14668 -0.496815,0.29394 -0.765691,0.14552 -1.439623,-0.79474 -1.123196,-1.56706 -1.841021,-3.20958 -2.078498,-4.75607 l -0.06837,-0.44521 -0.149543,0.0312 c -0.377995,0.0787 -0.6828,-0.1785 -0.864813,-0.72983 -0.486118,-1.47239 -0.735084,-3.22615 -0.641149,-4.51624 0.02676,-0.36755 0.01753,-0.58936 -0.02476,-0.59497 -0.03708,-0.005 -0.217904,-0.0278 -0.401823,-0.0507 -0.965494,-0.12062 -1.031125,-0.62783 -0.301176,-2.3276 1.542655,-3.59225 4.398454,-5.46938 9.156395,-6.01858 0.28092,-0.03244 0.26135,0.09424 0.21661,-1.402193 -0.0518,-1.733444 -0.22016,-2.390635 -0.826903,-3.228082 -0.583406,-0.805254 0.204223,-1.643309 0.895123,-0.952402 0.80164,0.801632 1.17909,2.107191 1.24376,4.302022 l 0.037,1.254541 0.34336,0.02788 c 4.60821,0.374244 7.85832,2.592754 9.32523,6.365334 0.57637,1.48232 0.47065,1.87439 -0.53672,1.99037 l -0.37142,0.0428 0.029,0.41354 c 0.18808,2.67836 -0.62195,5.60654 -1.50034,5.42358 l -0.15252,-0.0317 -0.0278,0.23487 c -0.22584,1.90664 -2.08947,5.60782 -2.95178,5.86226 z m -3.56947,1.65753 c 0.5705,-0.70089 1.14021,-1.66399 1.42161,-2.4034 l 0.12288,-0.32288 -0.23461,-0.1826 c -0.12904,-0.10043 -0.50118,-0.44652 -0.82706,-0.76903 l -0.59263,-0.58627 -0.38519,0.34092 c -0.58883,0.52123 -0.80275,0.5218 -1.38122,0.004 l -0.37497,-0.33579 -0.750846,0.71309 c -0.412977,0.39218 -0.790527,0.72971 -0.838943,0.75013 -0.383296,0.16128 1.601639,3.26142 2.528319,3.94882 0.17838,0.1323 0.47873,-0.13239 1.31241,-1.15653 z m 3.92062,-4.20481 c 0.76651,-1.28429 1.18415,-2.4556 1.32315,-3.71088 l 0.0162,-0.14616 -0.65342,-0.23211 c -0.35939,-0.12767 -0.89163,-0.34828 -1.18277,-0.49026 l -0.52934,-0.25812 -0.20406,0.57968 c -0.35097,0.99697 -0.8597,1.9017 -1.59553,2.83744 l -0.32454,0.41279 0.73258,0.6935 c 0.62213,0.58897 1.18417,1.04638 1.62043,1.31888 0.12768,0.0798 0.21805,-0.0341 0.79734,-1.00471 z m 2.76531,-6.04812 c 0.1908,-0.95429 0.25592,-1.79842 0.20433,-2.64905 l -0.0352,-0.58034 -0.48701,-0.0129 c -1.10711,-0.0293 -2.50521,-0.22812 -3.19742,-0.45473 l -0.26507,-0.0868 -0.17588,0.5183 c -0.19654,0.57924 -0.41736,1.061 -0.74431,1.62383 l -0.22001,0.37874 0.30903,0.29107 c 0.85149,0.80171 2.28998,1.54581 3.79869,1.96485 l 0.53925,0.14978 0.0924,-0.34942 c 0.0508,-0.19221 0.13234,-0.54919 0.18115,-0.79334 z m -6.82527,4.07668 c 0.73562,-0.88826 1.34498,-1.92678 1.65458,-2.81984 0.25909,-0.74734 0.25866,-0.75245 -0.0839,-1.03261 -0.15766,-0.12895 -0.3196,-0.26544 -0.35986,-0.30329 -0.0713,-0.067 -0.0976,-0.0444 -0.98763,0.84558 -1.33401,1.33401 -1.20519,1.33388 -2.53688,0.002 l -0.912236,-0.91223 -0.288046,0.24463 c -0.158432,0.13453 -0.32821,0.27107 -0.377269,0.30344 -0.404364,0.26676 0.955515,2.7856 2.260411,4.18684 l 0.57363,0.61598 0.35163,-0.35167 c 0.19339,-0.19342 0.51088,-0.54398 0.7055,-0.77904 z m 7.66607,-9.68817 c -1.37214,-2.7751 -3.79877,-4.31056 -7.50461,-4.74857 l -0.52002,-0.0615 0.0169,0.18625 c 0.34861,3.84808 2.93264,5.78847 7.55606,5.67395 l 0.88296,-0.0219 -0.0747,-0.22917 c -0.0412,-0.126 -0.20154,-0.48564 -0.35654,-0.79912 z M 99.045105,115.9715 c -0.70792,-0.92639 -1.211194,-1.82595 -1.53372,-2.74142 -0.104115,-0.29552 -0.196311,-0.54432 -0.204874,-0.55289 -0.0086,-0.009 -0.126675,0.0411 -0.262455,0.11042 -0.378886,0.19337 -1.268857,0.56238 -1.698034,0.70408 l -0.385342,0.12722 0.01507,0.1863 c 0.110925,1.37114 1.614997,4.81531 2.057248,4.7109 0.05736,-0.0135 0.640659,-0.43639 1.134905,-0.82271 0.0658,-0.0514 0.37335,-0.35087 0.683522,-0.66542 l 0.563693,-0.57218 z m 3.512755,-5.53582 c 0.69772,-0.87329 1.26258,-1.8722 1.55221,-2.74502 0.19021,-0.57321 0.2216,-0.49819 -0.38095,-0.91047 -0.84902,-0.58092 -1.63321,-1.52177 -2.11278,-2.53475 l -0.21405,-0.45218 -0.13964,0.3082 c -0.5235,1.15547 -1.435541,2.22301 -2.435581,2.85087 -0.334031,0.20973 -0.329321,0.17266 -0.104497,0.82165 0.404211,1.16685 1.232601,2.43826 2.254418,3.46008 l 0.42753,0.42753 0.43474,-0.4353 c 0.23907,-0.23943 0.56249,-0.59516 0.71861,-0.7906 z m -4.35663,-0.67164 c -0.30033,-0.50983 -0.600214,-1.17897 -0.765436,-1.70797 l -0.123963,-0.39689 -0.366197,0.10358 c -0.868942,0.24575 -1.778191,0.37816 -2.894114,0.42144 l -0.688425,0.0267 -0.0377,0.61688 c -0.05993,0.9806 0.08692,2.26712 0.388321,3.40217 l 0.09263,0.34881 0.504849,-0.14086 c 1.59447,-0.44486 3.235106,-1.30086 3.951099,-2.06149 l 0.184414,-0.19572 z m 1.15754,-5.01324 c 0.67323,-0.86126 1.23231,-2.34067 1.34115,-3.54883 l 0.0167,-0.18576 -0.50108,0.0565 c -3.829766,0.43197 -6.399504,2.13736 -7.699361,5.10963 -0.136678,0.31254 -0.249356,0.59437 -0.250392,0.62629 -0.0026,0.0821 2.146911,0.0781 2.78912,-0.005 2.049669,-0.26565 3.416577,-0.91757 4.303833,-2.05267 z"
       id="path2598"
       inkscape:export-filename="HopSeparators/SingleHopSep.svg"
       inkscape:export-xdpi="96"
       inkscape:export-ydpi="96" /><path
       style="fill:none;stroke:#000000;stroke-width:1.70712;stroke-linecap:round;stroke-dasharray:none"
       d="m 38.934188,110.00507 c 0.137303,5.56341 -6.262376,5.1944 -6.262376,0 0,-7.40863 9.206202,-8.60124 23.990118,0 14.783914,8.60123 24.493971,7.48614 24.423214,0 -0.04978,-5.26678 -6.695473,-6.29199 -6.695473,0"
       id="path2600"
       sodipodi:nodetypes="cszsc" /><path
       style="fill:none;stroke:#000000;stroke-width:1.70712;stroke-linecap:round;stroke-dasharray:none"
       d="m 164.07298,109.84068 c -0.1373,5.56341 6.26238,5.1944 6.26238,0 0,-7.40863 -9.20621,-8.60124 -23.99013,0 -14.78391,8.60123 -24.49396,7.48614 -24.42321,0 0.0498,-5.26678 6.69547,-6.29199 6.69547,0"
       id="path2604"
       sodipodi:nodetypes="cszsc" /><path
       style="fill:#000000;stroke-width:0.257659;stroke-dasharray:none"
       d="m 85.225014,191.4303 c -0.17546,-0.0955 -0.30289,-0.28893 -0.37623,-0.5711 -0.0759,-0.29211 -0.0379,-0.29057 -0.75891,-0.0307 -1.71619,0.61844 -4.89865,0.85646 -5.38186,0.40251 -0.52092,-0.48938 -0.20084,-4.00425 0.52878,-5.80654 0.0802,-0.19803 0.0915,-0.2706 0.0447,-0.28629 -0.0345,-0.0116 -0.16301,-0.0468 -0.28564,-0.0782 -0.55916,-0.14345 -0.64433,-0.43853 -0.45601,-1.57993 0.31386,-1.9023 0.96772,-3.57132 1.89333,-4.83277 l 0.26647,-0.36316 -0.12778,-0.0837 c -0.32296,-0.21161 -0.3566,-0.60903 -0.0954,-1.12758 0.6974,-1.38488 1.76145,-2.80102 2.74011,-3.64683 0.27882,-0.24097 0.42913,-0.40434 0.40319,-0.43821 -0.0227,-0.0297 -0.13445,-0.17371 -0.24825,-0.32001 -0.59742,-0.768 -0.28517,-1.17306 1.4329,-1.85883 3.63092,-1.44928 6.97761,-0.75726 10.73032,2.21877 0.22158,0.17571 0.11817,0.25144 1.14467,-0.83833 1.18909,-1.26237 1.53476,-1.84611 1.69789,-2.86731 0.15687,-0.98193 1.3064,-1.01759 1.3064,-0.0405 0,1.13368 -0.65627,2.32375 -2.16252,3.92146 l -0.86095,0.91324 0.22308,0.26251 c 2.99386,3.52312 3.723316,7.39002 2.09295,11.0949 -0.64059,1.45571 -0.9926,1.65819 -1.78691,1.02789 l -0.29288,-0.2324 -0.27189,0.31296 c -1.76088,2.02688 -4.4042,3.52464 -4.89594,2.77415 l -0.0854,-0.13029 -0.18575,0.1464 c -1.50791,1.18851 -5.44281,2.48785 -6.23247,2.05802 z m -3.69604,-1.35194 c 0.899,-0.0922 1.98286,-0.37037 2.70468,-0.69423 l 0.31521,-0.14142 -0.0368,-0.29501 c -0.0202,-0.16226 -0.0386,-0.67013 -0.041,-1.12861 l -0.005,-0.83361 -0.51343,-0.0313 c -0.78493,-0.0478 -0.9366,-0.19867 -0.97932,-0.97403 l -0.0277,-0.50258 -1.03516,-0.0267 c -0.56933,-0.0147 -1.07497,-0.043 -1.12364,-0.0628 -0.38507,-0.15699 -1.17365,3.4387 -1.00445,4.58003 0.0326,0.21968 0.43212,0.2449 1.7458,0.11022 z m 5.74554,-0.20096 c 1.45014,-0.36612 2.57369,-0.89904 3.5596,-1.68837 l 0.1148,-0.0919 -0.29791,-0.62617 c -0.16386,-0.3444 -0.38421,-0.87675 -0.48968,-1.18301 l -0.19178,-0.55682 -0.55419,0.26561 c -0.95314,0.45679 -1.95261,0.7368 -3.13459,0.87816 l -0.52136,0.0624 0.0276,1.00839 c 0.0234,0.85638 0.0974,1.57724 0.21323,2.07841 0.0339,0.14669 0.1783,0.13007 1.27424,-0.14663 z m 6.23203,-2.32129 c 0.80971,-0.53987 1.45264,-1.09071 2.01765,-1.72868 l 0.38547,-0.43525 -0.33525,-0.35347 c -0.76214,-0.80356 -1.61016,-1.93276 -1.93939,-2.58246 l -0.12607,-0.24879 -0.49085,0.24213 c -0.54856,0.27061 -1.04536,0.45512 -1.67453,0.62191 l -0.42338,0.11224 0.0127,0.42434 c 0.0352,1.16899 0.5262,2.71231 1.29671,4.07543 l 0.2754,0.48722 0.31242,-0.18174 c 0.17183,-0.1 0.48191,-0.29476 0.68907,-0.43288 z m -7.70884,-1.94355 c 1.14825,-0.10793 2.31349,-0.41139 3.16389,-0.82396 0.71165,-0.34525 0.71497,-0.34916 0.67087,-0.78947 -0.0203,-0.20266 -0.0383,-0.41368 -0.04,-0.46892 -0.003,-0.0978 -0.0376,-0.10044 -1.29628,-0.10044 -1.88657,0 -1.7954,0.091 -1.7954,-1.79229 v -1.2901 l -0.37665,-0.0307 c -0.20716,-0.0169 -0.42376,-0.0404 -0.48134,-0.0522 -0.47455,-0.0973 -1.29406,2.64537 -1.36218,4.55889 l -0.03,0.84119 0.49731,-4e-5 c 0.27352,-2e-5 0.7459,-0.0234 1.04973,-0.052 z m 12.2713,-1.42984 c 0.99205,-2.93254 0.3619,-5.73416 -1.94881,-8.66431 l -0.32424,-0.41117 -0.11977,0.14363 c -2.4745,2.96751 -2.01938,6.16675 1.33085,9.35503 l 0.63981,0.60888 0.1092,-0.21489 c 0.06,-0.11819 0.20089,-0.48591 0.31296,-0.81717 z m -15.00352,-0.65437 c 0.15448,-1.15563 0.4347,-2.14759 0.85397,-3.02298 0.13535,-0.28259 0.24609,-0.52371 0.24609,-0.53582 0,-0.0121 -0.11865,-0.0605 -0.26366,-0.10751 -0.40465,-0.13118 -1.29489,-0.49955 -1.69855,-0.70283 l -0.36244,-0.18252 -0.12107,0.14239 c -0.89111,1.04798 -2.26297,4.54692 -1.87643,4.78581 0.0501,0.031 0.76159,0.14444 1.38425,0.22075 0.0829,0.0102 0.5121,0.0159 0.95385,0.0128 l 0.80318,-0.006 z m 6.39831,-1.43053 c 1.11087,-0.12414 2.21662,-0.43106 3.0386,-0.84344 0.53982,-0.27082 0.50897,-0.19558 0.37443,-0.91317 -0.18958,-1.01112 -0.0788,-2.23091 0.29838,-3.2863 l 0.16838,-0.4711 -0.31667,0.11919 c -1.18721,0.44687 -2.58699,0.55683 -3.73809,0.29366 -0.38449,-0.0879 -0.35495,-0.11078 -0.65488,0.5071 -0.53927,1.11091 -0.85253,2.59569 -0.85253,4.04076 v 0.60462 l 0.6152,-4e-4 c 0.33836,-2.5e-4 0.81859,-0.0231 1.06718,-0.0509 z m -2.60568,-3.55552 c 0.14814,-0.57287 0.40924,-1.25807 0.66647,-1.74896 l 0.19299,-0.3683 -0.33218,-0.1857 c -0.78821,-0.44066 -1.52477,-0.98997 -2.34446,-1.74844 l -0.50567,-0.46791 -0.46285,0.40954 c -0.73577,0.65101 -1.54164,1.66455 -2.13112,2.68028 l -0.18114,0.31214 0.45658,0.25738 c 1.44202,0.8129 3.20741,1.36772 4.25154,1.33616 l 0.2688,-0.008 z m 4.3634,-2.72639 c 1.08505,-0.13296 2.52648,-0.78373 3.45774,-1.56107 l 0.14318,-0.11952 -0.39429,-0.31436 c -3.01349,-2.4026 -6.03646,-3.01379 -9.05731,-1.83121 -0.31765,0.12435 -0.59661,0.24396 -0.61991,0.2658 -0.0599,0.0562 1.4629,1.57329 1.97586,1.96855 1.63718,1.26149 3.06471,1.76706 4.49473,1.59181 z"
       id="path354"
       inkscape:export-filename="HopSeparators/DoubleHopHalf.svg"
       inkscape:export-xdpi="96"
       inkscape:export-ydpi="96" /><path
       style="fill:none;stroke:#000000;stroke-width:1.70712;stroke-linecap:round;stroke-dasharray:none"
       d="m 31.788484,180.83381 c 0.1373,5.56341 -6.26238,5.1944 -6.26238,0 0,-7.40863 9.20621,-8.60124 23.99013,0 14.78391,8.60123 24.49396,7.48614 24.42321,0 -0.0498,-5.26678 -6.69547,-6.29199 -6.69547,0"
       id="path356"
       sodipodi:nodetypes="cszsc" /></g></svg>
